<!--?xml version="1.0" encoding="utf-8"?-->
<!-- Generator: Adobe Illustrator 19.1.1, SVG Export Plug-In . SVG Version: 6.00 Build 0)  -->
<svg version="1.1" id="_x31_0" xmlns="http://www.w3.org/2000/svg" xmlns:xlink="http://www.w3.org/1999/xlink" x="0px" y="0px" viewBox="0 0 512 512" style="width: 256px; height: 256px; opacity: 1;" xml:space="preserve">
<style type="text/css">
	.st0{fill:#374149;}
</style>
<g>
	<path class="st0" d="M83.039,375.304v27.688c0,11.992,9.734,21.722,21.726,21.722h14.523c11.993,0,21.794-9.73,21.794-21.722
		v-27.688H369.68h1.242v27.688c0,11.992,9.734,21.722,21.794,21.722h14.527c11.992,0,21.722-9.73,21.722-21.722v-27.688h24.465
		c12.062,0,21.859-9.801,21.859-21.793v-86.07c0-25.355-14.527-47.969-37.347-58.519l-28.574-89.91
		c-5.961-18.98-23.367-31.726-43.309-31.726H146.016c-20.008,0-37.414,12.746-43.446,31.726l-28.645,89.91
		c-22.683,10.617-37.21,33.234-37.21,58.519v86.07c0,11.992,9.801,21.793,21.793,21.793H83.039z M400.89,269.223l13.328,0.043
		l-7.523,27.301h-46.988l-11.871-0.039c0.27-1.012,0.406-1.961,0.539-2.977l3.086-24.258v-0.07H400.89z M120.594,209.196
		l22.957-72.094c1.028-3.219,3.973-5.344,7.333-5.344h41.206l20.422,0.082l-15.856,27.535c-0.886,1.508-0.476,3.426,0.894,4.454
		c1.574,1.164,3.7,0.824,4.798-0.684l23.023-31.386h35.008l18.598,0.086c-4.309,6.836-9.153,14.746-13.996,22.734
		c-6.578,11.102-13.02,22.203-17.473,30.84c-4.594,8.496-7.402,14.32-7.402,14.32c-0.688,1.371-0.344,3.086,0.82,4.114
		c1.442,1.23,3.633,1.094,4.867-0.344c0,0,4.246-4.934,10.141-12.609c6.098-7.539,13.637-17.958,21.176-28.371
		c7.402-10.555,14.664-21.106,19.941-29.192c0.34-0.546,0.754-1.098,1.028-1.578h63.046c3.356,0,6.305,2.125,7.332,5.344
		l22.958,72.094l1.93,6.164l0.488,1.714H182.438l-64.297-0.05L120.594,209.196z M319.867,265.336l-0.477,3.887l-2.606,20.355
		c-0.339,2.602-1.367,5-3.011,6.989c-2.539,3.222-6.512,5.277-10.898,5.277h-93.746c-4.453,0-8.426-2.054-10.965-5.277
		c-1.645-1.989-2.672-4.387-3.012-6.989l-2.538-20.355l-0.477-3.906H305.41L319.867,265.336z M145.355,269.223l15.188,0.05v0.02
		l3.086,24.258c0.122,0.918,0.27,1.785,0.488,2.691c0.012,0.118,0.028,0.203,0.039,0.325h-58.914l-7.469-27.344H145.355z
		 M58.371,341.52c0-3.562,2.879-6.442,6.442-6.442h382.312c3.562,0,6.442,2.879,6.442,6.442v4.453c0,3.496-2.879,6.375-6.442,6.375
		h-18.16h-58.043H141.082H83.039H64.813c-3.562,0-6.442-2.879-6.442-6.375V341.52z" style="fill: rgb(75, 75, 75);"></path>
	<path class="st0" d="M63.39,159.852c0-5.203-4.218-9.422-9.422-9.422H9.426c-5.203,0-9.426,4.218-9.426,9.422v13.133
		c0,14.039,11.379,25.414,25.418,25.414H63.39V159.852z" style="fill: rgb(75, 75, 75);"></path>
	<path class="st0" d="M512,172.984v-13.133c0-5.203-4.215-9.422-9.422-9.422h-44.539c-5.203,0-9.426,4.218-9.426,9.422v38.547
		h37.976C500.625,198.399,512,187.024,512,172.984z" style="fill: rgb(75, 75, 75);"></path>
</g>
</svg>
