<!--?xml version="1.0" encoding="utf-8"?-->
<!-- Generator: Adobe Illustrator 19.1.1, SVG Export Plug-In . SVG Version: 6.00 Build 0)  -->
<svg version="1.1" id="_x31_0" xmlns="http://www.w3.org/2000/svg" xmlns:xlink="http://www.w3.org/1999/xlink" x="0px" y="0px" viewBox="0 0 512 512" style="width: 256px; height: 256px; opacity: 1;" xml:space="preserve">
<style type="text/css">
	.st0{fill:#374149;}
</style>
<g>
	<path class="st0" d="M37.55,92.165C16.824,92.165,0,125.594,0,154.559c0,21.918,9.656,40.632,23.367,48.464
		c3.019,1.699,4.718,5.063,4.625,8.551l-4.438,188.163c-0.187,7.457,5.254,14.214,12.676,14.91
		c8.492,0.785,15.566-5.977,15.375-14.313l-4.462-188.761c-0.094-3.488,1.602-6.852,4.622-8.551
		c13.714-7.832,23.367-26.546,23.367-48.464C75.133,125.594,58.308,92.165,37.55,92.165z M28.934,126.036
		c-1.633,2.484-2.828,5.094-3.618,7.769c-0.566,1.821-2.832,2.547-4.273,1.29c-3.68-3.149-5.348-8.492-3.305-15.446
		c2.77-9.59,11.507-15.473,17.109-13.867c2.672,0.786,5,3.363,6.446,6.922c0.535,1.285-0.094,2.797-1.383,3.363
		C36.043,117.762,32.301,121.001,28.934,126.036z" style="fill: rgb(75, 75, 75);"></path>
	<path class="st0" d="M260.237,90.528c-91.246,0-165.475,74.23-165.475,165.468c0,91.246,74.23,165.476,165.475,165.476
		c91.242,0,165.468-74.23,165.468-165.476C425.705,164.758,351.479,90.528,260.237,90.528z M260.237,396.273
		c-77.351,0-140.277-62.926-140.277-140.277c0-77.343,62.926-140.269,140.277-140.269c77.344,0,140.269,62.926,140.269,140.269
		C400.506,333.347,337.581,396.273,260.237,396.273z" style="fill: rgb(75, 75, 75);"></path>
	<path class="st0" d="M260.237,173.266c-45.625,0-82.738,37.114-82.738,82.73c0,45.625,37.113,82.738,82.738,82.738
		c45.621,0,82.734-37.113,82.734-82.738C342.971,210.379,305.858,173.266,260.237,173.266z M260.237,328.656
		c-40.062,0-72.656-32.594-72.656-72.66c0-40.058,32.594-72.652,72.656-72.652s72.656,32.594,72.656,72.652
		C332.893,296.062,300.299,328.656,260.237,328.656z" style="fill: rgb(75, 75, 75);"></path>
	<path class="st0" d="M245.94,199.832c-21.91,2.442-39.578,20.625-41.457,42.586c-1.289,15.004,4.551,28.782,14.5,38.215
		c1.832-35.078,30.957-63.035,66.426-63.035c0.594,0,1.184,0.023,1.778,0.043c0.378,0.05,0.754,0.015,1.133,0.133
		c-0.027-0.039-0.062-0.07-0.09-0.106c0.07,0.004,0.145,0.004,0.219,0.004C278.827,205.313,263.166,197.914,245.94,199.832z" style="fill: rgb(75, 75, 75);"></path>
	<path class="st0" d="M510.377,92.165h-12.454l-0.148-0.004v0.004h-0.164l0.871,71.605c0.019,1.801-1.402,3.278-3.137,3.278
		c-1.762,0-3.188-1.477-3.203-3.278l-0.618-71.605h-11.777l0.125,71.605c0.004,1.801-1.402,3.278-3.137,3.278
		c-1.766,0-3.172-1.477-3.172-3.278l0.129-71.605h-11.777l-0.618,71.605c-0.015,1.801-1.438,3.278-3.203,3.278
		c-1.734,0-3.129-1.477-3.105-3.278l0.851-70.586l0.012-0.859l0,0v-0.16h-12.786l-1.625,83.015
		c-0.191,9.906,10.418,17.179,20.05,21.734c3.539,1.672,5.746,5.27,5.657,9.183l-4.426,193.777
		c-0.184,8.137,6.136,14.836,13.996,14.836c7.859,0,14.179-6.699,13.992-14.836l-4.43-194.117c-0.086-3.863,2.058-7.426,5.531-9.121
		c9.66-4.722,20.367-12.078,20.183-21.457L510.377,92.165z" style="fill: rgb(75, 75, 75);"></path>
</g>
</svg>
