<!--?xml version="1.0" encoding="utf-8"?-->
<!-- Generator: Adobe Illustrator 18.1.1, SVG Export Plug-In . SVG Version: 6.00 Build 0)  -->

<svg version="1.1" id="_x31_0" xmlns="http://www.w3.org/2000/svg" xmlns:xlink="http://www.w3.org/1999/xlink" x="0px" y="0px" viewBox="0 0 512 512" style="width: 256px; height: 256px; opacity: 1;" xml:space="preserve">
<style type="text/css">
	.st0{fill:#374149;}
</style>
<g>
	<path class="st0" d="M227.632,355.964c0,0-14.316-69.086,3.034-103.448c22.601-44.748,69.228-58.278,81.567-94.902
		c12.929-38.373-3.59-91.523-40.994-133.263C263.486,15.64,254.916,7.418,245.53,0c0.007,0.05,0.011,0.117,0.019,0.172
		c-0.058-0.051-0.117-0.102-0.176-0.149c2.622,17.957-0.906,62.205-16.03,85.313c-19.85,30.33-47.642,47.572-72.145,97.355
		c-18.414,37.416-17.956,78.922,6.808,114.322C188.298,331.738,227.632,355.964,227.632,355.964z" style="fill: rgb(75, 75, 75);"></path>
	<path class="st0" d="M275.087,261.613c-29.471,30.018-28.131,96.32-28.131,96.32s77.035-10.273,111.823-56.002
		c36.134-47.498,28.885-111.534-0.985-152.821c-3.542-4.98-7.343-9.664-11.46-13.847c-0.004,0.047-0.012,0.086-0.02,0.133
		c-0.046-0.046-0.09-0.106-0.141-0.156C335.159,226.701,307.429,228.666,275.087,261.613z" style="fill: rgb(75, 75, 75);"></path>
	<polygon class="st0" points="179.818,400.564 208.575,387.634 227.741,379.135 227.612,379.076 227.808,378.986 99.349,321.399 
		82.224,348.43 80.303,351.433 80.319,351.441 80.232,351.578 	" style="fill: rgb(75, 75, 75);"></polygon>
	<path class="st0" d="M432.896,472.662c-0.157-0.461-0.844-1.765-2.844-2.839c0,0-10.75-4.84-13.128-5.914l-37.241-16.66
		l-47.142-21.268l-31.326,15.425l-19.128,9.308l0.11,0.055l-0.18,0.09l121.01,59.583c0.769,0.382,1.304,0.691,2.074,1.074
		c0.766,0.308,1.535,0.461,2.305,0.461h0.918l1.922-0.614l23.342-36.858L432.896,472.662z" style="fill: rgb(75, 75, 75);"></path>
	<path class="st0" d="M431.412,351.679l-0.007-0.012l0.14-0.074l-19.069-30.194l-3.039,1.363c0,0-76.13,34.186-155.098,69.59
		L81.392,469.955c-1.866,1.019-2.426,2.566-2.578,3.183l-0.402,1.594l23.006,36.409l1.055,0.473l1.078,0.386h0.821
		c0.734,0,1.578-0.18,2.656-0.66c0.418-0.23,8.366-4.129,12.75-6.274l285.096-140.345
		C421.373,356.613,431.412,351.679,431.412,351.679z" style="fill: rgb(75, 75, 75);"></path>
</g>
</svg>
