<svg xmlns="http://www.w3.org/2000/svg" xmlns:xlink="http://www.w3.org/1999/xlink" width="1080" zoomAndPan="magnify" viewBox="0 0 810 809.999993" height="1080" preserveAspectRatio="xMidYMid meet" version="1.2"><defs><clipPath id="df7b59e6cd"><path d="M 8 168.582031 L 800 168.582031 L 800 641 L 8 641 Z M 8 168.582031 "/></clipPath><clipPath id="59dd6643b1"><path d="M 8 168.582031 L 800 168.582031 L 800 641 L 8 641 Z M 8 168.582031 "/></clipPath></defs><g id="524fbd3caf"><path style=" stroke:none;fill-rule:nonzero;fill:#4b4b4b;fill-opacity:1;" d="M 197.960938 545.199219 C 198.914062 545.199219 199.894531 544.996094 200.804688 544.566406 L 302.796875 496.941406 C 306.152344 495.371094 307.601562 491.371094 306.03125 488.015625 C 304.460938 484.644531 300.433594 483.222656 297.105469 484.765625 L 195.113281 532.394531 C 191.757812 533.964844 190.308594 537.964844 191.878906 541.320312 C 193.019531 543.761719 195.449219 545.199219 197.960938 545.199219 Z M 197.960938 545.199219 "/><path style=" stroke:none;fill-rule:nonzero;fill:#4b4b4b;fill-opacity:1;" d="M 628.59375 330.492188 C 627.023438 327.125 622.980469 325.714844 619.667969 327.246094 L 517.6875 374.871094 C 514.332031 376.441406 512.882812 380.441406 514.453125 383.796875 C 515.59375 386.238281 518.023438 387.675781 520.535156 387.675781 C 521.488281 387.675781 522.46875 387.476562 523.378906 387.046875 L 625.359375 339.417969 C 628.714844 337.847656 630.164062 333.847656 628.59375 330.492188 Z M 628.59375 330.492188 "/><path style=" stroke:none;fill-rule:nonzero;fill:#4b4b4b;fill-opacity:1;" d="M 658.769531 323.125 C 659.722656 323.125 660.6875 322.921875 661.613281 322.492188 L 676.351562 315.621094 C 679.707031 314.050781 681.160156 310.050781 679.585938 306.695312 C 678.015625 303.324219 674.058594 301.902344 670.660156 303.445312 L 655.921875 310.316406 C 652.566406 311.886719 651.117188 315.886719 652.6875 319.246094 C 653.828125 321.6875 656.257812 323.125 658.769531 323.125 Z M 658.769531 323.125 "/><g clip-rule="nonzero" clip-path="url(#df7b59e6cd)"><path style=" stroke:none;fill-rule:nonzero;fill:#4b4b4b;fill-opacity:1;" d="M 765.226562 482.59375 L 651.695312 441.34375 L 623.410156 399.3125 L 759.777344 335.703125 C 774.503906 328.816406 784.585938 314.640625 788.140625 295.78125 C 791.566406 277.710938 788.558594 257.363281 779.710938 238.464844 C 769.015625 215.480469 750.746094 197.480469 730.824219 190.300781 C 717.226562 185.402344 703.871094 185.734375 692.257812 191.238281 L 373.390625 340.199219 L 349.628906 331.566406 L 318.367188 174.367188 C 317.65625 170.808594 314.164062 168.421875 310.703125 169.050781 L 265.398438 176.542969 C 262.621094 176.996094 260.433594 179.132812 259.894531 181.882812 L 238.78125 291.285156 L 97.351562 239.898438 C 66.667969 228.757812 29.445312 253.308594 14.421875 294.652344 C -0.597656 335.996094 12.15625 378.722656 42.855469 389.878906 L 168.738281 435.625 L 49.351562 491.425781 C 49.015625 491.574219 48.667969 491.667969 48.34375 491.8125 C 18.746094 505.640625 9.804688 549.304688 28.421875 589.171875 C 43.1875 620.773438 70.894531 640.625 96.480469 640.625 C 103.179688 640.625 109.714844 639.269531 115.863281 636.410156 C 116.039062 636.328125 116.160156 636.195312 116.332031 636.113281 L 380.824219 512.699219 L 710.675781 632.558594 C 710.675781 632.558594 710.714844 632.558594 710.730469 632.558594 C 715.738281 634.382812 720.917969 635.253906 726.152344 635.253906 C 752.972656 635.253906 781.082031 612.410156 793.644531 577.804688 C 808.667969 536.445312 795.914062 493.734375 765.214844 482.578125 Z M 697.992188 203.386719 C 706.328125 199.429688 716.140625 199.28125 726.273438 202.929688 C 742.878906 208.917969 758.316406 224.316406 767.535156 244.140625 C 775.214844 260.515625 777.847656 277.96875 774.945312 293.285156 C 772.207031 307.792969 764.785156 318.53125 754.085938 323.539062 L 610.472656 390.546875 C 610.214844 390.667969 610.042969 390.882812 609.8125 391.03125 C 609.800781 391.03125 609.773438 391.03125 609.757812 391.058594 C 609.734375 391.074219 609.71875 391.113281 609.691406 391.125 C 606.953125 392.925781 605.800781 396.414062 607.234375 399.460938 C 607.371094 399.757812 607.679688 399.890625 607.855469 400.160156 C 607.894531 400.226562 607.894531 400.308594 607.933594 400.375 L 630.257812 433.558594 L 391.226562 346.695312 Z M 131.714844 587.710938 C 131.648438 588.488281 131.621094 589.292969 131.527344 590.058594 C 130.976562 594.421875 130.089844 598.636719 128.667969 602.53125 C 128.078125 604.140625 127.3125 605.5625 126.601562 607.039062 C 126.066406 608.140625 125.566406 609.269531 124.964844 610.289062 C 124.171875 611.617188 123.285156 612.796875 122.375 613.980469 C 121.515625 615.105469 120.601562 616.167969 119.621094 617.175781 C 118.707031 618.128906 117.78125 619.066406 116.761719 619.886719 C 115.246094 621.121094 113.582031 622.167969 111.847656 623.121094 C 111.257812 623.441406 110.734375 623.886719 110.117188 624.167969 C 110.050781 624.195312 110.023438 624.25 109.96875 624.289062 C 87.125 634.757812 56.023438 616.515625 40.585938 583.480469 C 25.148438 550.433594 31.121094 514.902344 53.835938 504.097656 C 53.886719 504.070312 53.941406 504.082031 53.996094 504.054688 L 54.359375 503.882812 C 57.941406 502.242188 61.792969 501.425781 65.792969 501.15625 C 66.464844 501.117188 67.097656 500.957031 67.78125 500.941406 C 69.929688 500.929688 72.117188 501.144531 74.332031 501.503906 C 74.976562 501.613281 75.621094 501.789062 76.265625 501.921875 C 77.863281 502.257812 79.460938 502.6875 81.070312 503.222656 C 81.914062 503.503906 82.761719 503.789062 83.621094 504.125 C 84.628906 504.511719 85.621094 504.957031 86.613281 505.425781 C 87.632812 505.894531 88.652344 506.378906 89.675781 506.929688 C 90.292969 507.265625 90.894531 507.640625 91.5 508.003906 C 94.492188 509.746094 97.40625 511.707031 100.183594 513.960938 C 100.546875 514.257812 100.882812 514.605469 101.246094 514.914062 C 103.539062 516.847656 105.703125 519.011719 107.808594 521.265625 C 108.628906 522.152344 109.460938 523.011719 110.238281 523.9375 C 112.332031 526.378906 114.292969 528.984375 116.160156 531.722656 C 116.910156 532.824219 117.609375 533.976562 118.304688 535.132812 C 119.835938 537.601562 121.257812 540.164062 122.574219 542.835938 C 122.898438 543.492188 123.273438 544.113281 123.582031 544.78125 C 125.769531 549.453125 127.472656 554.234375 128.828125 559.023438 C 129.097656 559.949219 129.234375 560.878906 129.460938 561.804688 C 130.414062 565.65625 131.140625 569.496094 131.542969 573.308594 C 131.664062 574.40625 131.730469 575.480469 131.796875 576.570312 C 132.039062 580.367188 132.023438 584.085938 131.703125 587.710938 Z M 140.078125 610.222656 C 140.507812 609.199219 140.910156 608.167969 141.300781 607.121094 C 142.402344 604.074219 143.21875 600.863281 143.890625 597.589844 C 143.90625 597.480469 143.917969 597.386719 143.945312 597.28125 C 144.804688 592.957031 145.339844 588.488281 145.460938 583.882812 C 145.460938 583.804688 145.476562 583.738281 145.476562 583.65625 C 145.582031 579.414062 145.300781 575.078125 144.777344 570.703125 C 144.65625 569.710938 144.546875 568.730469 144.402344 567.722656 C 143.785156 563.601562 142.925781 559.453125 141.757812 555.332031 C 141.449219 554.234375 141.058594 553.144531 140.710938 552.03125 C 139.488281 548.179688 138.078125 544.351562 136.386719 540.59375 C 136.160156 540.070312 136.039062 539.546875 135.796875 539.023438 C 135.488281 538.367188 135.085938 537.800781 134.761719 537.171875 C 133.179688 533.949219 131.449219 530.863281 129.59375 527.867188 C 128.789062 526.582031 127.996094 525.292969 127.152344 524.042969 C 124.992188 520.875 122.695312 517.855469 120.253906 515.007812 C 119.273438 513.867188 118.238281 512.808594 117.21875 511.734375 C 115.015625 509.398438 112.734375 507.183594 110.359375 505.144531 C 109.632812 504.527344 108.964844 503.839844 108.238281 503.25 C 105.109375 500.714844 101.835938 498.550781 98.492188 496.578125 C 98.0625 496.324219 97.675781 495.960938 97.230469 495.71875 C 96.667969 495.398438 96.089844 495.171875 95.511719 494.859375 C 94.628906 494.390625 93.726562 493.949219 92.828125 493.519531 C 91.378906 492.835938 89.929688 492.203125 88.464844 491.640625 C 87.941406 491.4375 87.417969 491.15625 86.894531 490.957031 C 86.25 490.726562 85.605469 490.511719 84.960938 490.3125 C 84.761719 490.242188 84.558594 490.175781 84.359375 490.109375 C 84.265625 490.082031 84.15625 490.042969 84.0625 490.003906 L 186.589844 442.09375 L 363 506.203125 Z M 685.898438 528.742188 C 684.59375 531.535156 683.375 534.378906 682.300781 537.347656 C 680.621094 541.976562 679.398438 546.609375 678.40625 551.226562 C 678.191406 552.21875 677.976562 553.183594 677.789062 554.179688 C 676.957031 558.664062 676.378906 563.117188 676.164062 567.480469 C 676.125 568.164062 676.164062 568.824219 676.136719 569.507812 C 676.015625 573.507812 676.164062 577.414062 676.554688 581.226562 C 676.621094 581.9375 676.648438 582.664062 676.742188 583.375 C 677.253906 587.480469 678.085938 591.429688 679.15625 595.226562 C 679.386719 596.03125 679.65625 596.796875 679.910156 597.589844 C 681.078125 601.226562 682.433594 604.730469 684.109375 607.980469 C 684.207031 608.152344 684.273438 608.355469 684.367188 608.542969 C 684.394531 608.597656 684.421875 608.664062 684.445312 608.730469 L 188.777344 428.617188 C 188.65625 428.5625 188.535156 428.523438 188.414062 428.484375 L 47.457031 377.261719 C 23.699219 368.628906 14.558594 333.632812 27.042969 299.242188 C 39.550781 264.839844 69.082031 243.871094 92.761719 252.515625 L 241.613281 306.597656 C 241.785156 306.667969 241.976562 306.640625 242.164062 306.679688 C 242.324219 306.71875 242.445312 306.828125 242.621094 306.867188 C 242.859375 306.910156 243.089844 306.839844 243.332031 306.867188 C 243.882812 306.921875 244.40625 306.933594 244.929688 306.855469 C 245.183594 306.8125 245.410156 306.746094 245.667969 306.667969 C 246.285156 306.492188 246.859375 306.265625 247.410156 305.929688 C 247.574219 305.835938 247.707031 305.714844 247.867188 305.59375 C 248.390625 305.203125 248.847656 304.773438 249.238281 304.238281 C 249.398438 304.007812 249.519531 303.765625 249.667969 303.527344 C 249.839844 303.203125 250.109375 302.949219 250.230469 302.585938 C 250.3125 302.371094 250.269531 302.15625 250.324219 301.941406 C 250.363281 301.808594 250.457031 301.699219 250.484375 301.550781 L 272.191406 189.023438 L 306.472656 183.359375 L 337.214844 337.890625 C 337.253906 338.105469 337.375 338.265625 337.441406 338.464844 C 337.574219 338.9375 337.722656 339.367188 337.953125 339.796875 C 338.140625 340.144531 338.394531 340.441406 338.648438 340.75 C 338.90625 341.058594 339.121094 341.367188 339.414062 341.632812 C 339.964844 342.105469 340.582031 342.464844 341.238281 342.75 C 341.320312 342.773438 341.375 342.855469 341.453125 342.882812 L 341.507812 342.882812 C 341.507812 342.882812 341.523438 342.910156 341.535156 342.910156 L 644.191406 452.886719 C 644.539062 453.089844 644.914062 453.15625 645.292969 453.289062 L 729.777344 483.988281 C 729.777344 483.988281 729.683594 484.027344 729.644531 484.054688 C 727.386719 484.980469 725.160156 486.070312 722.957031 487.277344 C 722.300781 487.640625 721.667969 488.042969 721.023438 488.429688 C 719.453125 489.359375 717.910156 490.335938 716.382812 491.398438 C 715.644531 491.90625 714.90625 492.445312 714.179688 492.996094 C 712.714844 494.097656 711.292969 495.25 709.871094 496.472656 C 709.210938 497.035156 708.554688 497.585938 707.910156 498.175781 C 706.085938 499.855469 704.3125 501.625 702.59375 503.492188 C 702.421875 503.679688 702.246094 503.839844 702.085938 504.015625 C 700.21875 506.082031 698.449219 508.296875 696.714844 510.59375 C 696.191406 511.292969 695.695312 512.042969 695.183594 512.753906 C 694.003906 514.433594 692.851562 516.136719 691.75 517.921875 C 691.199219 518.796875 690.675781 519.695312 690.152344 520.59375 C 689.105469 522.40625 688.125 524.273438 687.171875 526.164062 C 686.742188 527.023438 686.300781 527.855469 685.898438 528.742188 Z M 781.054688 573.226562 C 768.542969 607.601562 739.09375 628.597656 715.332031 619.953125 C 691.574219 611.320312 682.433594 576.328125 694.917969 541.9375 C 707.425781 507.53125 736.957031 486.59375 760.636719 495.210938 C 784.382812 503.839844 793.539062 538.835938 781.054688 573.226562 Z M 781.054688 573.226562 "/></g><path style=" stroke:none;fill-rule:nonzero;fill:#4b4b4b;fill-opacity:1;" d="M 640.230469 487.476562 L 534.453125 449.046875 C 530.964844 447.773438 527.113281 449.585938 525.851562 453.0625 C 524.574219 456.550781 526.375 460.390625 529.863281 461.664062 L 635.640625 500.097656 C 636.40625 500.378906 637.171875 500.5 637.933594 500.5 C 640.671875 500.5 643.25 498.808594 644.246094 496.082031 C 645.519531 492.59375 643.71875 488.753906 640.230469 487.476562 Z M 640.230469 487.476562 "/><path style=" stroke:none;fill-rule:nonzero;fill:#4b4b4b;fill-opacity:1;" d="M 476.976562 442.429688 L 492.265625 447.988281 C 493.03125 448.269531 493.796875 448.390625 494.5625 448.390625 C 497.300781 448.390625 499.875 446.699219 500.871094 443.972656 C 502.144531 440.484375 500.347656 436.644531 496.855469 435.371094 L 481.566406 429.8125 C 478.078125 428.535156 474.226562 430.347656 472.964844 433.824219 C 471.6875 437.316406 473.488281 441.15625 476.976562 442.429688 Z M 476.976562 442.429688 "/><path style=" stroke:none;fill-rule:nonzero;fill:#4b4b4b;fill-opacity:1;" d="M 300.769531 370.777344 L 194.992188 332.34375 C 191.488281 331.097656 187.652344 332.882812 186.390625 336.359375 C 185.113281 339.847656 186.914062 343.6875 190.402344 344.964844 L 296.179688 383.394531 C 296.941406 383.675781 297.707031 383.796875 298.472656 383.796875 C 301.210938 383.796875 303.789062 382.105469 304.78125 379.378906 C 306.058594 375.890625 304.257812 372.050781 300.769531 370.777344 Z M 300.769531 370.777344 "/><path style=" stroke:none;fill-rule:nonzero;fill:#4b4b4b;fill-opacity:1;" d="M 157.367188 318.679688 L 142.09375 313.125 C 138.589844 311.875 134.761719 313.660156 133.488281 317.136719 C 132.210938 320.613281 134.011719 324.464844 137.5 325.742188 L 152.777344 331.296875 C 153.542969 331.582031 154.308594 331.699219 155.074219 331.699219 C 157.8125 331.699219 160.386719 330.011719 161.382812 327.285156 C 162.65625 323.808594 160.859375 319.957031 157.367188 318.679688 Z M 157.367188 318.679688 "/><path style=" stroke:none;fill-rule:nonzero;fill:#4b4b4b;fill-opacity:1;" d="M 506.574219 500.125 L 400.800781 461.679688 C 397.296875 460.417969 393.457031 462.214844 392.195312 465.691406 C 390.917969 469.183594 392.71875 473.023438 396.207031 474.296875 L 501.984375 512.742188 C 502.75 513.023438 503.515625 513.144531 504.28125 513.144531 C 507.019531 513.144531 509.59375 511.453125 510.589844 508.726562 C 511.863281 505.238281 510.066406 501.398438 506.574219 500.125 Z M 506.574219 500.125 "/><path style=" stroke:none;fill-rule:nonzero;fill:#4b4b4b;fill-opacity:1;" d="M 363.1875 448.015625 L 347.898438 442.457031 C 344.394531 441.179688 340.554688 442.992188 339.292969 446.46875 C 338.019531 449.960938 339.816406 453.800781 343.308594 455.074219 L 358.597656 460.632812 C 359.363281 460.914062 360.125 461.035156 360.890625 461.035156 C 363.628906 461.035156 366.207031 459.34375 367.199219 456.617188 C 368.476562 453.128906 366.675781 449.289062 363.1875 448.015625 Z M 363.1875 448.015625 "/><path style=" stroke:none;fill-rule:nonzero;fill:#4b4b4b;fill-opacity:1;" d="M 197.960938 545.199219 C 198.914062 545.199219 199.894531 544.996094 200.804688 544.566406 L 302.796875 496.941406 C 306.152344 495.371094 307.601562 491.371094 306.03125 488.015625 C 304.460938 484.644531 300.433594 483.222656 297.105469 484.765625 L 195.113281 532.394531 C 191.757812 533.964844 190.308594 537.964844 191.878906 541.320312 C 193.019531 543.761719 195.449219 545.199219 197.960938 545.199219 Z M 197.960938 545.199219 "/><path style=" stroke:none;fill-rule:nonzero;fill:#4b4b4b;fill-opacity:1;" d="M 628.59375 330.492188 C 627.023438 327.125 622.980469 325.714844 619.667969 327.246094 L 517.6875 374.871094 C 514.332031 376.441406 512.882812 380.441406 514.453125 383.796875 C 515.59375 386.238281 518.023438 387.675781 520.535156 387.675781 C 521.488281 387.675781 522.46875 387.476562 523.378906 387.046875 L 625.359375 339.417969 C 628.714844 337.847656 630.164062 333.847656 628.59375 330.492188 Z M 628.59375 330.492188 "/><path style=" stroke:none;fill-rule:nonzero;fill:#4b4b4b;fill-opacity:1;" d="M 658.769531 323.125 C 659.722656 323.125 660.6875 322.921875 661.613281 322.492188 L 676.351562 315.621094 C 679.707031 314.050781 681.160156 310.050781 679.585938 306.695312 C 678.015625 303.324219 674.058594 301.902344 670.660156 303.445312 L 655.921875 310.316406 C 652.566406 311.886719 651.117188 315.886719 652.6875 319.246094 C 653.828125 321.6875 656.257812 323.125 658.769531 323.125 Z M 658.769531 323.125 "/><g clip-rule="nonzero" clip-path="url(#59dd6643b1)"><path style=" stroke:none;fill-rule:nonzero;fill:#4b4b4b;fill-opacity:1;" d="M 765.226562 482.59375 L 651.695312 441.34375 L 623.410156 399.3125 L 759.777344 335.703125 C 774.503906 328.816406 784.585938 314.640625 788.140625 295.78125 C 791.566406 277.710938 788.558594 257.363281 779.710938 238.464844 C 769.015625 215.480469 750.746094 197.480469 730.824219 190.300781 C 717.226562 185.402344 703.871094 185.734375 692.257812 191.238281 L 373.390625 340.199219 L 349.628906 331.566406 L 318.367188 174.367188 C 317.65625 170.808594 314.164062 168.421875 310.703125 169.050781 L 265.398438 176.542969 C 262.621094 176.996094 260.433594 179.132812 259.894531 181.882812 L 238.78125 291.285156 L 97.351562 239.898438 C 66.667969 228.757812 29.445312 253.308594 14.421875 294.652344 C -0.597656 335.996094 12.15625 378.722656 42.855469 389.878906 L 168.738281 435.625 L 49.351562 491.425781 C 49.015625 491.574219 48.667969 491.667969 48.34375 491.8125 C 18.746094 505.640625 9.804688 549.304688 28.421875 589.171875 C 43.1875 620.773438 70.894531 640.625 96.480469 640.625 C 103.179688 640.625 109.714844 639.269531 115.863281 636.410156 C 116.039062 636.328125 116.160156 636.195312 116.332031 636.113281 L 380.824219 512.699219 L 710.675781 632.558594 C 710.675781 632.558594 710.714844 632.558594 710.730469 632.558594 C 715.738281 634.382812 720.917969 635.253906 726.152344 635.253906 C 752.972656 635.253906 781.082031 612.410156 793.644531 577.804688 C 808.667969 536.445312 795.914062 493.734375 765.214844 482.578125 Z M 697.992188 203.386719 C 706.328125 199.429688 716.140625 199.28125 726.273438 202.929688 C 742.878906 208.917969 758.316406 224.316406 767.535156 244.140625 C 775.214844 260.515625 777.847656 277.96875 774.945312 293.285156 C 772.207031 307.792969 764.785156 318.53125 754.085938 323.539062 L 610.472656 390.546875 C 610.214844 390.667969 610.042969 390.882812 609.8125 391.03125 C 609.800781 391.03125 609.773438 391.03125 609.757812 391.058594 C 609.734375 391.074219 609.71875 391.113281 609.691406 391.125 C 606.953125 392.925781 605.800781 396.414062 607.234375 399.460938 C 607.371094 399.757812 607.679688 399.890625 607.855469 400.160156 C 607.894531 400.226562 607.894531 400.308594 607.933594 400.375 L 630.257812 433.558594 L 391.226562 346.695312 Z M 131.714844 587.710938 C 131.648438 588.488281 131.621094 589.292969 131.527344 590.058594 C 130.976562 594.421875 130.089844 598.636719 128.667969 602.53125 C 128.078125 604.140625 127.3125 605.5625 126.601562 607.039062 C 126.066406 608.140625 125.566406 609.269531 124.964844 610.289062 C 124.171875 611.617188 123.285156 612.796875 122.375 613.980469 C 121.515625 615.105469 120.601562 616.167969 119.621094 617.175781 C 118.707031 618.128906 117.78125 619.066406 116.761719 619.886719 C 115.246094 621.121094 113.582031 622.167969 111.847656 623.121094 C 111.257812 623.441406 110.734375 623.886719 110.117188 624.167969 C 110.050781 624.195312 110.023438 624.25 109.96875 624.289062 C 87.125 634.757812 56.023438 616.515625 40.585938 583.480469 C 25.148438 550.433594 31.121094 514.902344 53.835938 504.097656 C 53.886719 504.070312 53.941406 504.082031 53.996094 504.054688 L 54.359375 503.882812 C 57.941406 502.242188 61.792969 501.425781 65.792969 501.15625 C 66.464844 501.117188 67.097656 500.957031 67.78125 500.941406 C 69.929688 500.929688 72.117188 501.144531 74.332031 501.503906 C 74.976562 501.613281 75.621094 501.789062 76.265625 501.921875 C 77.863281 502.257812 79.460938 502.6875 81.070312 503.222656 C 81.914062 503.503906 82.761719 503.789062 83.621094 504.125 C 84.628906 504.511719 85.621094 504.957031 86.613281 505.425781 C 87.632812 505.894531 88.652344 506.378906 89.675781 506.929688 C 90.292969 507.265625 90.894531 507.640625 91.5 508.003906 C 94.492188 509.746094 97.40625 511.707031 100.183594 513.960938 C 100.546875 514.257812 100.882812 514.605469 101.246094 514.914062 C 103.539062 516.847656 105.703125 519.011719 107.808594 521.265625 C 108.628906 522.152344 109.460938 523.011719 110.238281 523.9375 C 112.332031 526.378906 114.292969 528.984375 116.160156 531.722656 C 116.910156 532.824219 117.609375 533.976562 118.304688 535.132812 C 119.835938 537.601562 121.257812 540.164062 122.574219 542.835938 C 122.898438 543.492188 123.273438 544.113281 123.582031 544.78125 C 125.769531 549.453125 127.472656 554.234375 128.828125 559.023438 C 129.097656 559.949219 129.234375 560.878906 129.460938 561.804688 C 130.414062 565.65625 131.140625 569.496094 131.542969 573.308594 C 131.664062 574.40625 131.730469 575.480469 131.796875 576.570312 C 132.039062 580.367188 132.023438 584.085938 131.703125 587.710938 Z M 140.078125 610.222656 C 140.507812 609.199219 140.910156 608.167969 141.300781 607.121094 C 142.402344 604.074219 143.21875 600.863281 143.890625 597.589844 C 143.90625 597.480469 143.917969 597.386719 143.945312 597.28125 C 144.804688 592.957031 145.339844 588.488281 145.460938 583.882812 C 145.460938 583.804688 145.476562 583.738281 145.476562 583.65625 C 145.582031 579.414062 145.300781 575.078125 144.777344 570.703125 C 144.65625 569.710938 144.546875 568.730469 144.402344 567.722656 C 143.785156 563.601562 142.925781 559.453125 141.757812 555.332031 C 141.449219 554.234375 141.058594 553.144531 140.710938 552.03125 C 139.488281 548.179688 138.078125 544.351562 136.386719 540.59375 C 136.160156 540.070312 136.039062 539.546875 135.796875 539.023438 C 135.488281 538.367188 135.085938 537.800781 134.761719 537.171875 C 133.179688 533.949219 131.449219 530.863281 129.59375 527.867188 C 128.789062 526.582031 127.996094 525.292969 127.152344 524.042969 C 124.992188 520.875 122.695312 517.855469 120.253906 515.007812 C 119.273438 513.867188 118.238281 512.808594 117.21875 511.734375 C 115.015625 509.398438 112.734375 507.183594 110.359375 505.144531 C 109.632812 504.527344 108.964844 503.839844 108.238281 503.25 C 105.109375 500.714844 101.835938 498.550781 98.492188 496.578125 C 98.0625 496.324219 97.675781 495.960938 97.230469 495.71875 C 96.667969 495.398438 96.089844 495.171875 95.511719 494.859375 C 94.628906 494.390625 93.726562 493.949219 92.828125 493.519531 C 91.378906 492.835938 89.929688 492.203125 88.464844 491.640625 C 87.941406 491.4375 87.417969 491.15625 86.894531 490.957031 C 86.25 490.726562 85.605469 490.511719 84.960938 490.3125 C 84.761719 490.242188 84.558594 490.175781 84.359375 490.109375 C 84.265625 490.082031 84.15625 490.042969 84.0625 490.003906 L 186.589844 442.09375 L 363 506.203125 Z M 685.898438 528.742188 C 684.59375 531.535156 683.375 534.378906 682.300781 537.347656 C 680.621094 541.976562 679.398438 546.609375 678.40625 551.226562 C 678.191406 552.21875 677.976562 553.183594 677.789062 554.179688 C 676.957031 558.664062 676.378906 563.117188 676.164062 567.480469 C 676.125 568.164062 676.164062 568.824219 676.136719 569.507812 C 676.015625 573.507812 676.164062 577.414062 676.554688 581.226562 C 676.621094 581.9375 676.648438 582.664062 676.742188 583.375 C 677.253906 587.480469 678.085938 591.429688 679.15625 595.226562 C 679.386719 596.03125 679.65625 596.796875 679.910156 597.589844 C 681.078125 601.226562 682.433594 604.730469 684.109375 607.980469 C 684.207031 608.152344 684.273438 608.355469 684.367188 608.542969 C 684.394531 608.597656 684.421875 608.664062 684.445312 608.730469 L 188.777344 428.617188 C 188.65625 428.5625 188.535156 428.523438 188.414062 428.484375 L 47.457031 377.261719 C 23.699219 368.628906 14.558594 333.632812 27.042969 299.242188 C 39.550781 264.839844 69.082031 243.871094 92.761719 252.515625 L 241.613281 306.597656 C 241.785156 306.667969 241.976562 306.640625 242.164062 306.679688 C 242.324219 306.71875 242.445312 306.828125 242.621094 306.867188 C 242.859375 306.910156 243.089844 306.839844 243.332031 306.867188 C 243.882812 306.921875 244.40625 306.933594 244.929688 306.855469 C 245.183594 306.8125 245.410156 306.746094 245.667969 306.667969 C 246.285156 306.492188 246.859375 306.265625 247.410156 305.929688 C 247.574219 305.835938 247.707031 305.714844 247.867188 305.59375 C 248.390625 305.203125 248.847656 304.773438 249.238281 304.238281 C 249.398438 304.007812 249.519531 303.765625 249.667969 303.527344 C 249.839844 303.203125 250.109375 302.949219 250.230469 302.585938 C 250.3125 302.371094 250.269531 302.15625 250.324219 301.941406 C 250.363281 301.808594 250.457031 301.699219 250.484375 301.550781 L 272.191406 189.023438 L 306.472656 183.359375 L 337.214844 337.890625 C 337.253906 338.105469 337.375 338.265625 337.441406 338.464844 C 337.574219 338.9375 337.722656 339.367188 337.953125 339.796875 C 338.140625 340.144531 338.394531 340.441406 338.648438 340.75 C 338.90625 341.058594 339.121094 341.367188 339.414062 341.632812 C 339.964844 342.105469 340.582031 342.464844 341.238281 342.75 C 341.320312 342.773438 341.375 342.855469 341.453125 342.882812 L 341.507812 342.882812 C 341.507812 342.882812 341.523438 342.910156 341.535156 342.910156 L 644.191406 452.886719 C 644.539062 453.089844 644.914062 453.15625 645.292969 453.289062 L 729.777344 483.988281 C 729.777344 483.988281 729.683594 484.027344 729.644531 484.054688 C 727.386719 484.980469 725.160156 486.070312 722.957031 487.277344 C 722.300781 487.640625 721.667969 488.042969 721.023438 488.429688 C 719.453125 489.359375 717.910156 490.335938 716.382812 491.398438 C 715.644531 491.90625 714.90625 492.445312 714.179688 492.996094 C 712.714844 494.097656 711.292969 495.25 709.871094 496.472656 C 709.210938 497.035156 708.554688 497.585938 707.910156 498.175781 C 706.085938 499.855469 704.3125 501.625 702.59375 503.492188 C 702.421875 503.679688 702.246094 503.839844 702.085938 504.015625 C 700.21875 506.082031 698.449219 508.296875 696.714844 510.59375 C 696.191406 511.292969 695.695312 512.042969 695.183594 512.753906 C 694.003906 514.433594 692.851562 516.136719 691.75 517.921875 C 691.199219 518.796875 690.675781 519.695312 690.152344 520.59375 C 689.105469 522.40625 688.125 524.273438 687.171875 526.164062 C 686.742188 527.023438 686.300781 527.855469 685.898438 528.742188 Z M 781.054688 573.226562 C 768.542969 607.601562 739.09375 628.597656 715.332031 619.953125 C 691.574219 611.320312 682.433594 576.328125 694.917969 541.9375 C 707.425781 507.53125 736.957031 486.59375 760.636719 495.210938 C 784.382812 503.839844 793.539062 538.835938 781.054688 573.226562 Z M 781.054688 573.226562 "/></g><path style=" stroke:none;fill-rule:nonzero;fill:#4b4b4b;fill-opacity:1;" d="M 640.230469 487.476562 L 534.453125 449.046875 C 530.964844 447.773438 527.113281 449.585938 525.851562 453.0625 C 524.574219 456.550781 526.375 460.390625 529.863281 461.664062 L 635.640625 500.097656 C 636.40625 500.378906 637.171875 500.5 637.933594 500.5 C 640.671875 500.5 643.25 498.808594 644.246094 496.082031 C 645.519531 492.59375 643.71875 488.753906 640.230469 487.476562 Z M 640.230469 487.476562 "/><path style=" stroke:none;fill-rule:nonzero;fill:#4b4b4b;fill-opacity:1;" d="M 476.976562 442.429688 L 492.265625 447.988281 C 493.03125 448.269531 493.796875 448.390625 494.5625 448.390625 C 497.300781 448.390625 499.875 446.699219 500.871094 443.972656 C 502.144531 440.484375 500.347656 436.644531 496.855469 435.371094 L 481.566406 429.8125 C 478.078125 428.535156 474.226562 430.347656 472.964844 433.824219 C 471.6875 437.316406 473.488281 441.15625 476.976562 442.429688 Z M 476.976562 442.429688 "/><path style=" stroke:none;fill-rule:nonzero;fill:#4b4b4b;fill-opacity:1;" d="M 300.769531 370.777344 L 194.992188 332.34375 C 191.488281 331.097656 187.652344 332.882812 186.390625 336.359375 C 185.113281 339.847656 186.914062 343.6875 190.402344 344.964844 L 296.179688 383.394531 C 296.941406 383.675781 297.707031 383.796875 298.472656 383.796875 C 301.210938 383.796875 303.789062 382.105469 304.78125 379.378906 C 306.058594 375.890625 304.257812 372.050781 300.769531 370.777344 Z M 300.769531 370.777344 "/><path style=" stroke:none;fill-rule:nonzero;fill:#4b4b4b;fill-opacity:1;" d="M 157.367188 318.679688 L 142.09375 313.125 C 138.589844 311.875 134.761719 313.660156 133.488281 317.136719 C 132.210938 320.613281 134.011719 324.464844 137.5 325.742188 L 152.777344 331.296875 C 153.542969 331.582031 154.308594 331.699219 155.074219 331.699219 C 157.8125 331.699219 160.386719 330.011719 161.382812 327.285156 C 162.65625 323.808594 160.859375 319.957031 157.367188 318.679688 Z M 157.367188 318.679688 "/><path style=" stroke:none;fill-rule:nonzero;fill:#4b4b4b;fill-opacity:1;" d="M 506.574219 500.125 L 400.800781 461.679688 C 397.296875 460.417969 393.457031 462.214844 392.195312 465.691406 C 390.917969 469.183594 392.71875 473.023438 396.207031 474.296875 L 501.984375 512.742188 C 502.75 513.023438 503.515625 513.144531 504.28125 513.144531 C 507.019531 513.144531 509.59375 511.453125 510.589844 508.726562 C 511.863281 505.238281 510.066406 501.398438 506.574219 500.125 Z M 506.574219 500.125 "/><path style=" stroke:none;fill-rule:nonzero;fill:#4b4b4b;fill-opacity:1;" d="M 363.1875 448.015625 L 347.898438 442.457031 C 344.394531 441.179688 340.554688 442.992188 339.292969 446.46875 C 338.019531 449.960938 339.816406 453.800781 343.308594 455.074219 L 358.597656 460.632812 C 359.363281 460.914062 360.125 461.035156 360.890625 461.035156 C 363.628906 461.035156 366.207031 459.34375 367.199219 456.617188 C 368.476562 453.128906 366.675781 449.289062 363.1875 448.015625 Z M 363.1875 448.015625 "/></g></svg>