<!--?xml version="1.0" encoding="utf-8"?-->
<!-- Generator: Adobe Illustrator 24.1.1, SVG Export Plug-In . SVG Version: 6.00 Build 0)  -->
<svg version="1.1" id="_x31_0" xmlns="http://www.w3.org/2000/svg" xmlns:xlink="http://www.w3.org/1999/xlink" x="0px" y="0px" viewBox="0 0 512 512" style="width: 256px; height: 256px; opacity: 1;" xml:space="preserve">
<style type="text/css">
	.st0{fill:#374149;}
</style>
<g>
	<path class="st0" d="M479.378,173.277c-5.922-28.014-31.086-48.422-59.757-48.422H399.31l-15.728-0.114
		c0.046,0.039,0.086,0.078,0.132,0.114h-0.222c8.336,6.729,15.207,14.042,20.4,21.942h15.729c18.507,0,34.45,12.875,38.329,31.014
		l27.646,129.243c0.442,2.086,0.803,4.118,1.135,6.189c0.039,0.336,0.125,0.636,0.158,0.979H83.922l-58.825-0.022
		c0.364-2.407,0.8-4.739,1.31-7.146l27.65-129.243c3.872-18.139,19.822-31.014,38.322-31.014h15.729
		c4.168-6.335,9.464-12.278,15.682-17.864c1.528-1.332,3.067-2.661,4.725-3.932h-0.171c0.057-0.046,0.11-0.1,0.171-0.146H92.378
		c-28.671,0-53.757,20.407-59.757,48.422L4.978,302.448C1.686,317.805,0,333.459,0,349.112c0,46.078,37.522,83.6,83.607,83.6H428.4
		c46.078,0,83.6-37.522,83.6-83.6c0-15.654-1.678-31.307-4.971-46.664L479.378,173.277z M434.614,397.827H77.386
		c-29.693,0-53.907-23.261-55.293-52.593c0,0-0.078-0.071,0-0.143c-0.078-0.074-0.078-0.074,0-0.15c0,0-0.078-0.071,0-0.143
		c0.071-8.121,0.729-16.239,1.971-24.286h463.872c1.242,8.046,1.903,16.165,1.978,24.286c0.071,0.072,0,0.143,0,0.143
		c0.071,0.075,0.071,0.075,0,0.15c0.071,0.072,0,0.143,0,0.143C488.522,374.566,464.314,397.827,434.614,397.827z"></path>
	<path class="st0" d="M82.943,273.556v27.722h54.128v-27.722H82.943z M87.843,294.912v-15.139c0-0.954,0.735-1.682,1.686-1.682
		h18.214c1.607,0,2.335,2.047,1.093,3.072L90.7,296.231c-0.364,0.293-0.736,0.439-1.1,0.439
		C88.65,296.67,87.843,295.938,87.843,294.912z"></path>
	<rect x="83.529" y="343.188" class="st0" width="82.435" height="13.897"></rect>
	<rect x="83.529" y="367.252" class="st0" width="41.178" height="13.897"></rect>
	<rect x="387.436" y="336.312" class="st0" width="17.335" height="17.336"></rect>
	<rect x="415.161" y="336.312" class="st0" width="17.332" height="17.336"></rect>
	<path class="st0" d="M287.6,350.063c0.143-0.365,0.222-0.804,0.293-1.243c0.878-4.242-0.657-8.85-4.1-12.286l-1.457-1.464
		c-2.786-2.779-6.365-4.39-9.95-4.39c-0.807,0-1.607,0.075-2.342,0.293c-0.379,0.065-0.761,0.125-1.14,0.19l-0.225,0.007
		c-0.078-0.046-0.189-0.061-0.314-0.122c-3.221-1.1-6.657-1.686-10.093-1.686c-8.264,0-16.093,3.222-21.942,9.142
		c-8.558,8.486-11.343,20.772-7.393,32.111c0,0.146,0.078,0.218,0.15,0.368c-0.15,0.364-0.222,0.803-0.293,1.242
		c-0.807,4.243,0.729,8.922,4.093,12.286l1.465,1.465c2.706,2.707,6.364,4.314,9.95,4.314c0.8,0,1.536-0.071,2.336-0.218
		c0.374-0.064,0.75-0.142,1.121-0.25c0.1,0.003,0.243,0.01,0.358,0.018c0.139,0.05,0.268,0.107,0.429,0.157
		c3,1.026,6.435,1.611,9.871,1.611c8.264,0,16.022-3.218,21.871-9.071c8.558-8.558,11.407-20.847,7.458-32.182
		C287.743,350.284,287.671,350.134,287.6,350.063z M240.2,342.384c4.978-5.05,11.486-7.536,18.071-7.536
		c1.272,0,2.55,0.161,3.829,0.382c0.164,0.046,0.329,0.064,0.497,0.121l-18.722,18.722l-10.772,10.654
		C231.754,356.859,234.086,348.498,240.2,342.384z M244.3,384.805c-2.05,0-4.314-0.95-6.071-2.707l-1.465-1.535
		c-2.193-2.193-3.071-5.046-2.557-7.458c0.071-0.807,0.364-1.464,0.729-2.05c0.15-0.365,0.442-0.732,0.728-1.025l32.258-32.254
		c0.293-0.293,0.514-0.514,0.878-0.661c0.586-0.439,1.322-0.658,2.122-0.732l1.464-0.218c2.05,0,4.243,0.95,6.071,2.778l1.465,1.465
		c2.193,2.193,3.142,5.118,2.557,7.461c-0.071,0.728-0.364,1.464-0.807,2.046c-0.142,0.368-0.364,0.661-0.657,0.954l-32.258,32.254
		c-0.293,0.293-0.578,0.51-0.95,0.732c-0.586,0.439-1.314,0.732-2.122,0.803L244.3,384.805z M254.014,385.62l29.564-29.557
		c1.458,7.971-0.95,16.382-7.171,22.6c-4.971,4.971-11.486,7.461-17.993,7.461c-1.275,0-2.6-0.161-3.893-0.382
		C254.354,385.691,254.186,385.677,254.014,385.62z"></path>
	<path class="st0" d="M124.343,133.852v0.05l-0.143-0.05v4.461c0,0.807,0.507,1.536,1.243,1.904l4.66,2.246l1.375,0.71
		c-1.157,1.165-2.314,2.393-3.478,3.625c-12.214,13.533-19.236,29.186-19.236,45.861c0,13.604,4.679,26.554,13.093,38.182
		l0.436-0.146c9.222-3.146,27.286-9.29,44.471-15.214c1.465-0.51,3-0.95,4.393-1.461c1.207-0.407,2.394-0.807,3.568-1.21l0.843-0.25
		c-0.007-0.01-0.011-0.021-0.018-0.032c0.046-0.014,0.096-0.032,0.142-0.046c-3.514-5.557-5.342-11.554-5.342-17.775
		c0-12.871,7.678-24.646,20.478-33.789l13.242,3.439l1.314-0.368l1.386-1.486l0.614-0.571l-0.061-0.022l0.111-0.118l-11.922-4.021
		l-5.414-1.829l-5.264-1.754l-21.943-7.39L137,138.095l-9.632-3.193L124.343,133.852z"></path>
	<path class="st0" d="M173.278,146.798l14.993,5.05l5.486,1.829l5.779,1.9c6.728-3.658,14.407-6.658,22.821-8.779
		c10.314-2.778,21.722-4.242,33.643-4.242c11.922,0,23.336,1.464,33.65,4.242c8.406,2.122,16.086,5.122,22.893,8.779l5.7-1.9
		l5.486-1.829l15-5.05l21.622-7.271l11.564-3.803c-0.025-0.022-0.054-0.039-0.078-0.058l0.171-0.057
		c-4.757-3.875-10.022-7.461-15.657-10.754c-25.6-14.922-59.679-24.207-97.2-24.722l-0.222-13.532l-0.072-4.532
		c0-1.393-1.096-2.493-2.442-2.7c-0.09-0.022-0.175-0.072-0.264-0.082v0.029c-0.054-0.004-0.097-0.029-0.15-0.029v7.243v37.154
		l-1.536,1.171h-1.9l0.365-24.722h-0.072c-37.521,0.514-71.535,9.8-97.135,24.722c-4.504,2.6-8.643,5.432-12.561,8.396
		c-1.032,0.743-2.136,1.479-3.118,2.218l0.096,0.032c-0.042,0.039-0.096,0.071-0.139,0.107L173.278,146.798z M157.064,134.448
		c0.993-0.643,1.986-1.346,3.05-1.986c4.386-2.778,9.064-5.339,13.964-7.607c18.95-9.29,41.258-15.139,65.029-17.336
		c3.586-0.293,6.657,2.49,6.657,6.071v8.85c0,0.878-0.15,1.686-0.514,2.414c-0.807,1.903-2.636,3.293-4.829,3.586
		c-18.358,2.264-34.743,7.9-47.836,15.725c-1.535,0.95-3.364,1.243-5.122,0.586l-18.789-6.31L157.064,134.448z"></path>
	<path class="st0" d="M256,152.431c-37.3,0-66.486,19.164-66.486,43.593c0,3.618,0.707,7.093,2.032,10.51
		c0.046,0.129,0.064,0.268,0.11,0.4c0,0,0.007-0.003,0.011-0.003c0.018,0.046,0.022,0.093,0.039,0.139
		c1.536-0.586,2.929-1.026,4.314-1.536c1.522-0.486,2.878-0.961,4.078-1.382c0.032-0.007,0.075-0.021,0.107-0.028
		c-0.004-0.004-0.004-0.004-0.004-0.007c0.04-0.014,0.097-0.032,0.14-0.046c-1.029-2.632-1.614-5.339-1.614-8.046
		c0-18.65,26.186-34.375,57.271-34.375c31.086,0,57.271,15.725,57.271,34.375c0,2.707-0.586,5.414-1.607,8.046
		c1.243,0.439,2.707,0.95,4.314,1.464c1.393,0.51,2.85,1.022,4.386,1.536c1.393-3.511,2.122-7.243,2.122-11.046
		C322.486,171.595,293.307,152.431,256,152.431z"></path>
	<path class="st0" d="M375.078,138.095l-25.893,8.703l-22.014,7.39l-5.193,1.754l-5.486,1.829l-8.342,2.814l-3.472,1.106l0.043,0.05
		l-0.15,0.05l2.043,2.197l1.322,0.368l13.307-3.439c12.728,9.142,20.407,20.918,20.407,33.789c0,5.804-1.65,11.4-4.658,16.643
		c-0.2,0.325-0.342,0.671-0.557,0.993l0.021,0.007c-0.025,0.042-0.042,0.09-0.071,0.132c1.465,0.51,2.929,1.025,4.465,1.539
		c1.457,0.511,2.921,0.95,4.457,1.461c17.114,5.925,35.186,12.068,44.4,15.214l0.436,0.146
		c8.414-11.629,13.093-24.578,13.093-38.182c0-16.674-7.022-32.328-19.236-45.861c-0.922-0.982-1.846-1.939-2.768-2.886
		c-0.232-0.271-0.475-0.503-0.703-0.789l6.107-2.907c0.728-0.368,1.171-1.097,1.171-1.904v-3.282l0.043-1.04l-0.043,0.014v-0.154
		L375.078,138.095z"></path>
	<path class="st0" d="M243.271,295.938h25.458l1.971-11.19c47.036-2.929,87.557-19.75,110.964-43.814l2.922,1.171
		c1.978,0.804,4.393,0.143,5.707-1.686l1.758-2.339c0.657-0.875,0.95-1.975,0.871-2.925c-1.022-0.365-2.114-0.732-3.286-1.097
		c-0.514-0.218-0.95-0.368-1.465-0.51c-12.142-4.171-28.821-9.875-44.542-15.214c-1.536-0.514-3.072-1.025-4.536-1.536
		c-1.536-0.514-3.142-1.025-4.607-1.535c-5.564-1.904-10.757-3.658-15.364-5.268c-1.607-0.51-3.071-1.025-4.458-1.461v-0.075
		c-1.614-0.51-3.15-1.025-4.464-1.464c-2.603-0.89-4.722-1.632-6.486-2.207c-0.075-0.036-0.178-0.068-0.25-0.103v0.018
		c-0.042-0.014-0.1-0.032-0.142-0.046l-0.365,1.829c-0.214,1.021,0.294,2.05,1.243,2.486l2.857,1.428l0.49,0.272
		c-8.69,10.614-26.261,18.303-46.603,19.346c-0.382,0.018-0.754,0.071-1.136,0.082l-0.222-15.86c0-1.172-0.95-2.122-2.122-2.122H256
		v58.589l-2.768,2.122l-1.618,1.136l0.142-11.378v-4.536l0.079-5.41v-0.368l-0.958-5.486l-3.578-0.218
		c-23.861-1.471-44.807-9.096-58.793-20.086c-1.978-1.575-3.825-3.229-5.525-4.954l13.189-6.632
		c9.872,13.354,30.054,22.91,53.786,24.329c0.654,0.039,1.29,0.142,1.95,0.171v-0.01c0.046,0.003,0.096,0.014,0.143,0.014
		l0.071-4.607l0.078-4.682c-18.893-0.729-35.425-7.254-44.957-16.525c-0.972-0.961-1.94-1.922-2.768-2.95l3.325-1.664
		c0.95-0.436,1.464-1.465,1.243-2.486l-0.304-1.518l-0.018-0.171c-0.004,0-0.011,0.003-0.014,0.003l-0.029-0.142
		c-1.828,0.586-4.1,1.389-6.8,2.339c-1.393,0.439-2.928,0.954-4.464,1.464v0.075c-1.393,0.436-2.85,0.95-4.386,1.461
		c-4.686,1.536-9.878,3.364-15.507,5.268c-1.465,0.51-3.071,1.022-4.607,1.535c-1.464,0.511-3,1.022-4.536,1.536
		c-15.728,5.339-32.407,11.043-44.542,15.214c-0.514,0.142-0.958,0.293-1.465,0.51c-1.171,0.365-2.271,0.732-3.293,1.097
		c0,0.95,0.293,2.05,0.878,2.925l1.758,2.339c1.386,1.829,3.729,2.49,5.7,1.686l3-1.171c23.336,24.064,63.857,40.886,110.886,43.814
		L243.271,295.938z M329.039,221.584c-13.614,13.586-37.075,23.3-64.261,24.982l-3.657,0.218l-0.482,2.857l-0.478,2.164
		l-0.21-12.407c25.086-0.95,46.006-10.532,56.1-24.428l9.993,5.05L329.039,221.584z"></path>
	<polygon class="st0" points="321.85,207.541 320.378,207.034 320.378,207.084 	"></polygon>
</g>
</svg>
