<!--?xml version="1.0" encoding="utf-8"?-->
<!-- Generator: Adobe Illustrator 19.1.1, SVG Export Plug-In . SVG Version: 6.00 Build 0)  -->
<svg version="1.1" id="_x31_0" xmlns="http://www.w3.org/2000/svg" xmlns:xlink="http://www.w3.org/1999/xlink" x="0px" y="0px" viewBox="0 0 512 512" style="width: 256px; height: 256px; opacity: 1;" xml:space="preserve">
<style type="text/css">
	.st0{fill:#374149;}
</style>
<g>
	<path class="st0" d="M163.264,62.367l2.148,2.582c4.481,5.453,3.992,15.453-1.504,30.562c-0.707,1.957-0.441,4.042,0.738,5.718
		c1.278,1.828,3.523,2.969,5.859,2.969h0.004c1.918,0,3.707-0.746,5.043-2.102c14.668-14.813,21.844-27.114,21.332-36.566
		c-0.442-8.05-3.973-13.004-6.406-15.793c-2.121-2.852-4.382-5.547-6.378-7.926l-2.13-2.559c-4.484-5.457-3.996-15.457,1.5-30.562
		c0.711-1.953,0.442-4.039-0.734-5.722C181.459,1.145,179.209,0,176.873,0c-1.914,0-3.706,0.746-5.046,2.102
		c-14.664,14.816-21.84,27.121-21.328,36.566c0.437,8.05,3.972,13,6.406,15.793C159.022,57.301,161.271,59.992,163.264,62.367z" style="fill: rgb(75, 75, 75);"></path>
	<path class="st0" d="M245.592,62.386l2.133,2.563c4.48,5.453,3.992,15.453-1.508,30.562c-0.707,1.957-0.438,4.042,0.738,5.718
		c1.278,1.828,3.527,2.969,5.867,2.969c1.914,0,3.703-0.746,5.043-2.102c14.668-14.813,21.843-27.114,21.328-36.562
		c-0.438-8.051-3.973-13-6.406-15.797c-2.114-2.84-4.367-5.531-6.355-7.902l-2.149-2.582c-4.484-5.457-3.996-15.457,1.5-30.562
		c0.711-1.957,0.442-4.039-0.734-5.722C263.764,1.137,261.518,0,259.178,0c-1.91,0-3.703,0.746-5.039,2.102
		c-14.668,14.816-21.843,27.121-21.328,36.566c0.438,8.05,3.973,13.004,6.406,15.793C241.334,57.313,243.596,60.008,245.592,62.386z
		" style="fill: rgb(75, 75, 75);"></path>
	<path class="st0" d="M327.877,62.355l2.153,2.594c4.484,5.453,3.992,15.453-1.504,30.562c-0.707,1.957-0.438,4.042,0.738,5.718
		c1.281,1.828,3.527,2.969,5.863,2.969h0.004c1.914,0,3.706-0.746,5.038-2.102c14.668-14.813,21.848-27.114,21.336-36.566
		c-0.441-8.05-3.976-13.004-6.41-15.793c-2.118-2.852-4.379-5.547-6.375-7.926l-2.133-2.559c-4.481-5.457-3.992-15.457,1.5-30.562
		c0.714-1.953,0.446-4.039-0.73-5.722C346.076,1.145,343.83,0,341.49,0c-1.914,0-3.707,0.746-5.043,2.102
		c-14.668,14.816-21.844,27.121-21.328,36.566c0.438,8.05,3.969,13,6.406,15.793C323.634,57.301,325.889,59.988,327.877,62.355z" style="fill: rgb(75, 75, 75);"></path>
	<path class="st0" d="M440.026,214.918l-0.734-0.094l0.859-0.758c-42.942-48.894-111.746-78.11-184.18-78.11
		c-71.503,0-139.476,28.551-182.511,76.387c-0.489,0.542-1.02,1.054-1.504,1.602l0.004,0.004c-0.035,0.038-0.074,0.078-0.11,0.117
		l0.594,0.523l0.246,0.328h-1.973v8.508c0,63.996,46.547,119.024,112.774,142.691L162.767,490.59l-3.566,21.25h0.028l-0.028,0.16
		h23.032l6.07-36.683l2.207-12.977c13.719,7.863,33.762,12.277,54.149,13.414v22.801v0.07v0.16h22.461h0.066h0.164v-21.129
		l0.012-1.902h0.011c18.321-1.066,36.282-4.718,49.703-11.148c1.555-0.719,3.058-1.465,4.477-2.246L329.767,512h23.032
		l-24.286-145.867c66.23-23.652,112.77-78.699,112.77-142.707v-8.508H440.026z M124.1,233.586l-2.954,13.11
		c-8.145-5.75-15.73-12.113-22.722-18.961c-0.098-0.098-0.211-0.184-0.309-0.285c9.867-10.266,21.098-19.512,33.406-27.508
		L124.1,233.586z M176.439,262.797l-2.507,11.27c-13.211-4.762-25.738-10.656-37.477-17.516l15.031-68.011
		c14.125-7.035,29.214-12.707,45.039-16.793L176.439,262.797z M190.229,279.183l24.562-111.289c2.418-0.422,4.863-0.762,7.305-1.11
		c1.953-0.281,3.906-0.531,5.863-0.762c4.867-0.574,9.766-1.004,14.695-1.281c1.965-0.114,3.926-0.195,5.89-0.258
		c2.469-0.078,4.942-0.164,7.426-0.164c2.516,0,5.031,0.106,7.598,0.161l0.282,0.027l-27.164,122.843
		C220.748,286.102,205.205,283.379,190.229,279.183z M230.502,333.238c0,5.278-4.308,9.586-9.586,9.586
		c-4.547,0-8.359-3.21-9.332-7.473l1.176-7.07c1.687-2.762,4.699-4.63,8.156-4.63C226.194,323.652,230.502,327.965,230.502,333.238z
		 M244.658,451.218l-0.008,1.79c-30.722-1.938-48.238-11.629-49.145-15.938c0.906-4.363,18.426-14.062,49.153-16.051V451.218z
		 M244.658,398.278c-13.633,0.762-26.989,3.062-38.547,6.812c-2.191,0.684-4.418,1.348-6.453,2.122l5.75-34.637
		c12.598,3,25.723,4.922,39.25,5.609V398.278z M269.959,452.758c-0.894,0.066-1.695,0.188-2.61,0.242v-31.981
		c0.008,0,0.016,0,0.023,0c30.57,1.926,48.043,11.57,49.122,15.993C315.447,441.309,298.862,450.45,269.959,452.758z
		 M306.592,372.586l3.808,22.942l1.867,11.734c-12.75-5.086-28.706-8.086-44.894-8.988c-0.007,0-0.015,0-0.023,0v-20.086
		C280.873,377.5,293.998,375.582,306.592,372.586z M281.498,333.238c0-5.274,4.308-9.586,9.586-9.586
		c3.453,0,6.469,1.867,8.156,4.626l1.176,7.078c-0.973,4.262-4.785,7.469-9.332,7.469
		C285.806,342.824,281.498,338.516,281.498,333.238z M303.053,283.664c-15.258,2.95-31.031,4.539-47.023,4.539
		c-0.672,0-1.395-0.054-2.066-0.054l-0.035-0.008l27.058-122.516c15.711,1.645,31.027,4.762,45.718,9.301L303.053,283.664z
		 M366.58,261.539c-12.214,6.378-25.27,11.664-38.801,15.824c-2.11,0.621-4.199,1.289-6.332,1.848l21.422-98.555
		c13.106,5.219,25.469,11.512,36.985,18.887L366.58,261.539z M393.428,244.566c-2.301,1.649-4.5,3.418-6.902,4.95l8.418-39.254
		c6.738,5.286,12.973,10.957,18.77,17.02c0.054,0.058,0.118,0.113,0.172,0.171C407.572,233.637,400.654,239.254,393.428,244.566z" style="fill: rgb(75, 75, 75);"></path>
</g>
</svg>
