<svg xmlns="http://www.w3.org/2000/svg" xmlns:xlink="http://www.w3.org/1999/xlink" width="1080" zoomAndPan="magnify" viewBox="0 0 810 809.999993" height="1080" preserveAspectRatio="xMidYMid meet" version="1.2"><defs><clipPath id="fa7c9ee156"><path d="M 19 74.746094 L 792 74.746094 L 792 735.496094 L 19 735.496094 Z M 19 74.746094 "/></clipPath><clipPath id="d5c4bd64a2"><path d="M 19 74.746094 L 791 74.746094 L 791 735 L 19 735 Z M 19 74.746094 "/></clipPath></defs><g id="7ab9eaed99"><g clip-rule="nonzero" clip-path="url(#fa7c9ee156)"><path style=" stroke:none;fill-rule:nonzero;fill:#000000;fill-opacity:1;" d="M 790.050781 635.28125 C 787.878906 629.980469 782.859375 626.191406 776.945312 625.386719 C 756.417969 622.605469 703.386719 595.183594 654.390625 401.144531 C 614.222656 242.082031 505.640625 174.3125 429.117188 162.441406 C 439.632812 149.960938 450.101562 133.976562 450.101562 119.753906 C 450.101562 94.972656 429.9375 74.8125 405.15625 74.8125 C 380.371094 74.8125 360.207031 94.972656 360.207031 119.753906 C 360.207031 133.835938 370.46875 149.648438 380.878906 162.070312 C 340.171875 167.296875 299.648438 185.445312 264.644531 214.484375 C 213.675781 256.769531 176.078125 321.316406 155.921875 401.144531 C 106.921875 595.183594 53.890625 622.605469 33.363281 625.386719 C 27.453125 626.191406 22.429688 629.980469 20.257812 635.277344 C 18.160156 640.398438 18.945312 646.09375 22.363281 650.519531 C 35.550781 667.585938 86.890625 721.359375 198.996094 705.464844 C 217.078125 716.039062 256.601562 735.238281 304.957031 735.238281 C 335.851562 735.238281 370.347656 727.402344 405.15625 704.472656 C 439.96875 727.40625 474.453125 735.238281 505.347656 735.238281 C 553.726562 735.234375 593.277344 716.019531 611.339844 705.445312 C 723.421875 721.367188 774.757812 667.585938 787.945312 650.519531 C 791.363281 646.097656 792.148438 640.398438 790.050781 635.28125 Z M 405.15625 97.347656 C 417.511719 97.347656 427.566406 107.398438 427.566406 119.753906 C 427.566406 126.050781 420.492188 139.394531 405.152344 155.457031 C 389.816406 139.394531 382.742188 126.050781 382.742188 119.753906 C 382.742188 107.398438 392.796875 97.347656 405.15625 97.347656 Z M 194.34375 683.359375 C 153.167969 688.976562 116.902344 684.941406 86.476562 671.34375 C 67.878906 663.035156 55.257812 652.753906 47.597656 645.082031 C 84.808594 632.597656 134.34375 578.636719 177.769531 406.660156 C 213.433594 265.421875 296.824219 202.152344 369.546875 186.832031 C 349.796875 206.847656 331.25 234.101562 314.863281 267.410156 C 288.480469 321.046875 268.285156 388.09375 254.84375 466.691406 C 233.582031 591.039062 207.121094 656.84375 194.34375 683.359375 Z M 411.699219 681.640625 C 407.78125 678.851562 402.527344 678.851562 398.609375 681.640625 C 323.234375 735.40625 247.964844 706.3125 216.414062 689.394531 C 230.304688 659.507812 256.296875 591.898438 277.058594 470.488281 C 300.9375 330.851562 348.535156 225.421875 405.152344 185.867188 C 461.769531 225.421875 509.371094 330.847656 533.25 470.488281 C 554.011719 591.890625 580.003906 659.507812 593.894531 689.394531 C 562.34375 706.3125 487.074219 735.410156 411.699219 681.640625 Z M 723.902344 671.347656 C 693.484375 684.957031 657.191406 688.988281 615.953125 683.339844 C 603.171875 656.804688 576.722656 591 555.464844 466.691406 C 542.023438 388.09375 521.832031 321.046875 495.445312 267.410156 C 479.386719 234.769531 461.253906 207.941406 441.945312 188.039062 C 470.507812 195.4375 500.46875 210.730469 526.910156 231.945312 C 562.097656 260.171875 608.988281 313.398438 632.539062 406.664062 C 675.96875 578.652344 725.507812 632.605469 762.714844 645.082031 C 755.058594 652.761719 742.449219 663.046875 723.902344 671.347656 Z M 723.902344 671.347656 "/></g><g clip-rule="nonzero" clip-path="url(#d5c4bd64a2)"><path style=" stroke:none;fill-rule:nonzero;fill:#4b4b4b;fill-opacity:1;" d="M 789.699219 635.070312 C 787.53125 629.773438 782.511719 625.984375 776.597656 625.183594 C 756.082031 622.402344 703.074219 594.992188 654.101562 401.023438 C 613.953125 242.019531 505.417969 174.277344 428.933594 162.40625 C 439.441406 149.933594 449.90625 133.953125 449.90625 119.738281 C 449.90625 94.964844 429.75 74.8125 404.980469 74.8125 C 380.207031 74.8125 360.050781 94.964844 360.050781 119.738281 C 360.050781 133.8125 370.308594 149.621094 380.710938 162.039062 C 340.027344 167.265625 299.523438 185.402344 264.535156 214.429688 C 213.585938 256.699219 176.007812 321.222656 155.859375 401.023438 C 106.882812 594.992188 53.875 622.402344 33.355469 625.183594 C 27.449219 625.984375 22.429688 629.773438 20.257812 635.070312 C 18.160156 640.1875 18.945312 645.882812 22.359375 650.304688 C 35.542969 667.363281 86.859375 721.117188 198.914062 705.226562 C 216.984375 715.800781 256.492188 734.992188 304.828125 734.992188 C 335.707031 734.992188 370.1875 727.15625 404.980469 704.238281 C 439.777344 727.164062 474.246094 734.992188 505.128906 734.992188 C 553.480469 734.988281 593.015625 715.777344 611.070312 705.210938 C 723.101562 721.125 774.414062 667.363281 787.597656 650.304688 C 791.011719 645.882812 791.796875 640.191406 789.699219 635.070312 Z M 404.980469 97.339844 C 417.332031 97.339844 427.378906 107.386719 427.378906 119.738281 C 427.378906 126.03125 420.308594 139.367188 404.976562 155.429688 C 389.644531 139.371094 382.578125 126.03125 382.578125 119.738281 C 382.578125 107.386719 392.625 97.339844 404.980469 97.339844 Z M 194.265625 683.132812 C 153.105469 688.746094 116.855469 684.714844 86.445312 671.121094 C 67.855469 662.8125 55.242188 652.539062 47.585938 644.867188 C 84.777344 632.390625 134.289062 578.449219 177.699219 406.539062 C 213.347656 265.351562 296.699219 202.105469 369.386719 186.789062 C 349.644531 206.796875 331.109375 234.042969 314.730469 267.339844 C 288.355469 320.953125 268.171875 387.976562 254.738281 466.542969 C 233.484375 590.84375 207.035156 656.625 194.265625 683.132812 Z M 411.519531 681.417969 C 407.605469 678.625 402.351562 678.625 398.4375 681.417969 C 323.09375 735.160156 247.859375 706.078125 216.324219 689.167969 C 230.210938 659.289062 256.1875 591.707031 276.941406 470.34375 C 300.808594 330.753906 348.386719 225.363281 404.976562 185.828125 C 461.570312 225.363281 509.148438 330.753906 533.019531 470.34375 C 553.769531 591.699219 579.75 659.289062 593.632812 689.167969 C 562.097656 706.078125 486.863281 735.164062 411.519531 681.417969 Z M 723.582031 671.125 C 693.175781 684.726562 656.902344 688.757812 615.683594 683.109375 C 602.90625 656.589844 576.46875 590.808594 555.222656 466.546875 C 541.785156 387.976562 521.601562 320.953125 495.226562 267.339844 C 479.175781 234.707031 461.054688 207.890625 441.753906 188 C 470.304688 195.394531 500.246094 210.679688 526.679688 231.886719 C 561.851562 260.101562 608.71875 313.308594 632.261719 406.539062 C 675.671875 578.464844 725.183594 632.398438 762.375 644.871094 C 754.722656 652.546875 742.121094 662.828125 723.582031 671.125 Z M 723.582031 671.125 "/></g></g></svg>