<svg xmlns="http://www.w3.org/2000/svg" xmlns:xlink="http://www.w3.org/1999/xlink" width="1080" zoomAndPan="magnify" viewBox="0 0 810 809.999993" height="1080" preserveAspectRatio="xMidYMid meet" version="1.0"><defs><clipPath id="b2ecdc9394"><path d="M 456 617 L 714.730469 617 L 714.730469 639 L 456 639 Z M 456 617 " clip-rule="nonzero"/></clipPath><clipPath id="40371e7bdd"><path d="M 95.230469 617 L 354 617 L 354 639 L 95.230469 639 Z M 95.230469 617 " clip-rule="nonzero"/></clipPath><clipPath id="37f339263a"><path d="M 456 459 L 714.730469 459 L 714.730469 481 L 456 481 Z M 456 459 " clip-rule="nonzero"/></clipPath><clipPath id="1d562393c6"><path d="M 95.230469 459 L 354 459 L 354 481 L 95.230469 481 Z M 95.230469 459 " clip-rule="nonzero"/></clipPath><clipPath id="eed7401f3e"><path d="M 413 497 L 714.730469 497 L 714.730469 601 L 413 601 Z M 413 497 " clip-rule="nonzero"/></clipPath><clipPath id="0389bf438c"><path d="M 413 43 L 714.730469 43 L 714.730469 443 L 413 443 Z M 413 43 " clip-rule="nonzero"/></clipPath><clipPath id="fd1d3a8a49"><path d="M 95.230469 43 L 397 43 L 397 443 L 95.230469 443 Z M 95.230469 43 " clip-rule="nonzero"/></clipPath><clipPath id="0684735329"><path d="M 95.230469 497 L 397 497 L 397 601 L 95.230469 601 Z M 95.230469 497 " clip-rule="nonzero"/></clipPath><clipPath id="69a2c39faa"><path d="M 95.230469 655 L 397 655 L 397 768.382812 L 95.230469 768.382812 Z M 95.230469 655 " clip-rule="nonzero"/></clipPath><clipPath id="0ca495b98e"><path d="M 413 655 L 714.730469 655 L 714.730469 768.382812 L 413 768.382812 Z M 413 655 " clip-rule="nonzero"/></clipPath></defs><rect x="-81" width="972" fill="#ffffff" y="-80.999999" height="971.999992" fill-opacity="1"/><rect x="-81" width="972" fill="#ffffff" y="-80.999999" height="971.999992" fill-opacity="1"/><g clip-path="url(#b2ecdc9394)"><path fill="#3b332a" d="M 456.832031 617.386719 L 714.738281 617.386719 L 714.738281 638.589844 L 456.832031 638.589844 Z M 456.832031 617.386719 " fill-opacity="1" fill-rule="evenodd"/></g><g clip-path="url(#40371e7bdd)"><path fill="#3b332a" d="M 95.253906 617.386719 L 353.160156 617.386719 L 353.160156 638.589844 L 95.253906 638.589844 Z M 95.253906 617.386719 " fill-opacity="1" fill-rule="evenodd"/></g><g clip-path="url(#37f339263a)"><path fill="#3b332a" d="M 456.832031 459.480469 L 714.738281 459.480469 L 714.738281 480.582031 L 456.832031 480.582031 Z M 456.832031 459.480469 " fill-opacity="1" fill-rule="evenodd"/></g><g clip-path="url(#1d562393c6)"><path fill="#3b332a" d="M 95.253906 459.480469 L 353.160156 459.480469 L 353.160156 480.582031 L 95.253906 480.582031 Z M 95.253906 459.480469 " fill-opacity="1" fill-rule="evenodd"/></g><g clip-path="url(#eed7401f3e)"><path fill="#3b332a" d="M 455.203125 497.605469 L 714.738281 497.605469 L 714.738281 600.464844 L 455.203125 600.464844 C 451.53125 591.1875 442.5625 584.664062 432.164062 584.664062 L 413.507812 584.664062 L 413.507812 513.304688 L 432.164062 513.304688 C 442.5625 513.304688 451.53125 506.78125 455.203125 497.605469 Z M 455.203125 497.605469 " fill-opacity="1" fill-rule="evenodd"/></g><g clip-path="url(#0389bf438c)"><path fill="#3b332a" d="M 413.507812 426.757812 L 413.507812 298.824219 C 432.265625 297.398438 449.289062 291.179688 461.011719 281.394531 C 523.703125 229.199219 523.09375 150.300781 522.480469 74.046875 C 522.378906 66.605469 522.378906 59.265625 522.378906 51.929688 C 522.378906 47.238281 526.152344 43.46875 530.839844 43.46875 L 630.027344 43.46875 C 634.71875 43.46875 638.488281 47.238281 638.488281 51.929688 L 638.488281 152.542969 C 638.488281 152.746094 638.488281 152.949219 638.488281 153.050781 C 631.863281 261.515625 675.085938 330.324219 698.328125 367.226562 C 708.621094 383.535156 714.738281 393.324219 714.738281 401.886719 L 714.738281 442.457031 L 455.203125 442.457031 C 451.53125 433.285156 442.5625 426.757812 432.164062 426.757812 Z M 413.507812 426.757812 " fill-opacity="1" fill-rule="evenodd"/></g><g clip-path="url(#fd1d3a8a49)"><path fill="#3b332a" d="M 354.792969 442.457031 L 95.253906 442.457031 L 95.253906 401.886719 C 95.253906 393.324219 101.371094 383.535156 111.664062 367.226562 C 134.90625 330.324219 178.128906 261.515625 171.503906 153.050781 C 171.503906 152.949219 171.503906 152.746094 171.503906 152.542969 L 171.503906 51.929688 C 171.503906 47.238281 175.277344 43.46875 179.964844 43.46875 L 279.152344 43.46875 C 283.839844 43.46875 287.613281 47.238281 287.613281 51.929688 C 287.613281 59.265625 287.613281 66.605469 287.511719 74.046875 C 286.898438 150.300781 286.289062 229.199219 348.980469 281.394531 C 360.703125 291.179688 377.726562 297.398438 396.484375 298.824219 L 396.484375 426.757812 L 377.828125 426.757812 C 367.429688 426.757812 358.460938 433.285156 354.792969 442.457031 Z M 354.792969 442.457031 " fill-opacity="1" fill-rule="evenodd"/></g><path fill="#3b332a" d="M 370.082031 488.941406 L 370.082031 451.632812 C 370.183594 447.148438 373.546875 443.78125 377.828125 443.78125 L 432.164062 443.78125 C 434.609375 443.78125 436.75 444.90625 438.175781 446.636719 L 408.003906 461.722656 C 401.785156 464.78125 401.785156 473.753906 408.003906 476.914062 L 438.890625 492.410156 C 437.566406 494.753906 435.015625 496.382812 432.164062 496.382812 L 377.828125 496.382812 C 373.75 496.382812 370.285156 493.019531 370.082031 488.941406 Z M 370.082031 488.941406 " fill-opacity="1" fill-rule="evenodd"/><g clip-path="url(#0684735329)"><path fill="#3b332a" d="M 354.792969 600.464844 L 95.253906 600.464844 L 95.253906 497.605469 L 354.792969 497.605469 C 358.460938 506.78125 367.429688 513.304688 377.828125 513.304688 L 396.484375 513.304688 L 396.484375 584.664062 L 377.828125 584.664062 C 367.429688 584.664062 358.460938 591.1875 354.792969 600.464844 Z M 354.792969 600.464844 " fill-opacity="1" fill-rule="evenodd"/></g><g clip-path="url(#69a2c39faa)"><path fill="#3b332a" d="M 396.484375 671.3125 L 396.484375 760.609375 C 389.757812 765.503906 381.5 768.359375 372.628906 768.359375 L 136.132812 768.359375 C 113.601562 768.359375 95.253906 750.007812 95.253906 727.480469 L 95.253906 655.511719 L 354.792969 655.511719 C 358.460938 664.789062 367.429688 671.3125 377.828125 671.3125 Z M 396.484375 671.3125 " fill-opacity="1" fill-rule="evenodd"/></g><path fill="#3b332a" d="M 370.082031 632.574219 L 370.082031 623.402344 L 379.15625 627.988281 Z M 370.082031 632.574219 " fill-opacity="1" fill-rule="evenodd"/><path fill="#3b332a" d="M 405.148438 654.289062 L 377.828125 654.289062 C 375.179688 654.289062 372.835938 652.964844 371.40625 650.925781 L 401.988281 635.53125 C 408.207031 632.472656 408.207031 623.503906 401.988281 620.34375 L 371.40625 605.050781 C 372.835938 603.011719 375.179688 601.6875 377.828125 601.6875 L 432.164062 601.6875 C 436.34375 601.6875 439.707031 604.949219 439.910156 609.128906 L 439.910156 646.847656 C 439.707031 651.027344 436.34375 654.289062 432.164062 654.289062 Z M 405.148438 654.289062 " fill-opacity="1" fill-rule="evenodd"/><path fill="#3b332a" d="M 430.839844 469.269531 L 439.910156 473.855469 L 439.910156 464.78125 Z M 430.839844 469.269531 " fill-opacity="1" fill-rule="evenodd"/><g clip-path="url(#0ca495b98e)"><path fill="#3b332a" d="M 673.863281 768.359375 L 437.363281 768.359375 C 428.492188 768.359375 420.234375 765.503906 413.507812 760.609375 L 413.507812 671.3125 L 432.164062 671.3125 C 442.5625 671.3125 451.53125 664.789062 455.203125 655.511719 L 714.738281 655.511719 L 714.738281 727.480469 C 714.738281 750.007812 696.390625 768.359375 673.863281 768.359375 Z M 673.863281 768.359375 " fill-opacity="1" fill-rule="evenodd"/></g><path fill="#3b332a" d="M 405.046875 113.703125 C 359.074219 113.703125 304.535156 101.574219 268.957031 70.886719 C 262.535156 65.28125 261.71875 55.394531 267.328125 48.871094 C 272.933594 42.449219 282.820312 41.632812 289.347656 47.238281 C 343.679688 94.234375 466.3125 94.234375 520.648438 47.238281 C 527.171875 41.632812 537.058594 42.449219 542.664062 48.871094 C 548.273438 55.394531 547.457031 65.28125 541.035156 70.886719 C 505.457031 101.574219 450.921875 113.703125 405.046875 113.703125 Z M 405.046875 113.703125 " fill-opacity="1" fill-rule="evenodd"/></svg>