<!--?xml version="1.0" encoding="utf-8"?-->
<!-- Generator: Adobe Illustrator 18.0.0, SVG Export Plug-In . SVG Version: 6.00 Build 0)  -->

<svg version="1.1" id="_x31_0" xmlns="http://www.w3.org/2000/svg" xmlns:xlink="http://www.w3.org/1999/xlink" x="0px" y="0px" viewBox="0 0 512 512" style="width: 256px; height: 256px; opacity: 1;" xml:space="preserve">
<style type="text/css">
	.st0{fill:#374149;}
</style>
<g>
	<path class="st0" d="M256,0C162.961,0,87.274,75.691,87.274,168.726C87.274,265.695,256,512,256,512
		s168.726-244.363,168.726-343.274C424.726,75.691,349.035,0,256,0z M256.074,448.547c-15.211-23.786-34.722-55.238-54.141-89.161
		c-71.98-125.762-79.754-175.226-79.754-190.66C122.18,94.942,182.211,34.91,256,34.91c73.79,0,133.817,60.031,133.817,133.816
		c0,19.578-10.328,70.418-79.496,190.942c-14.684,25.59-29.45,49.762-42.379,70.293C264.039,436.129,260.11,442.313,256.074,448.547
		z" style="fill: rgb(75, 75, 75);"></path>
	<path class="st0" d="M256,104.726c-35.347,0-64,28.657-64,64c0,35.348,28.653,64,64,64c35.344,0,64-28.652,64-64
		C320,133.383,291.344,104.726,256,104.726z" style="fill: rgb(75, 75, 75);"></path>
</g>
</svg>
