<!--?xml version="1.0" encoding="utf-8"?-->
<!-- Generator: Adobe Illustrator 18.1.1, SVG Export Plug-In . SVG Version: 6.00 Build 0)  -->

<svg version="1.1" id="_x31_0" xmlns="http://www.w3.org/2000/svg" xmlns:xlink="http://www.w3.org/1999/xlink" x="0px" y="0px" viewBox="0 0 512 512" style="width: 256px; height: 256px; opacity: 1;" xml:space="preserve">
<style type="text/css">
	.st0{fill:#374149;}
</style>
<g>
	<path class="st0" d="M0,54.256v339.629v1.039v0.16h87.09v38.527c0,13.328,10.801,24.133,24.129,24.133h20.57
		c13.328,0,24.129-10.805,24.129-24.133v-38.527h200.161v38.527c0,13.328,10.805,24.133,24.133,24.133h20.57
		c13.324,0,24.129-10.805,24.129-24.133v-38.527H512V54.256H0z M388.578,319.131H75.95V130.209h312.629V319.131z M452.95,270.194
		c-15.473,0-28.055-12.578-28.055-28.054c0-15.524,12.582-28.055,28.055-28.055c15.519,0,28.054,12.531,28.054,28.055
		C481.004,257.615,468.469,270.194,452.95,270.194z M452.95,183.135c-15.473,0-28.055-12.531-28.055-28.051
		c0-15.477,12.582-28.054,28.055-28.054c15.519,0,28.054,12.578,28.054,28.054C481.004,170.604,468.469,183.135,452.95,183.135z" style="fill: rgb(75, 75, 75);"></path>
</g>
</svg>
