<!--?xml version="1.0" encoding="utf-8"?-->
<!-- Generator: Adobe Illustrator 24.1.1, SVG Export Plug-In . SVG Version: 6.00 Build 0)  -->
<svg version="1.1" id="_x31_0" xmlns="http://www.w3.org/2000/svg" xmlns:xlink="http://www.w3.org/1999/xlink" x="0px" y="0px" viewBox="0 0 512 512" style="width: 256px; height: 256px; opacity: 1;" xml:space="preserve">
<style type="text/css">
	.st0{fill:#374149;}
</style>
<g>
	<path class="st0" d="M505.9,120.484c-4.367-4.367-10.715-6.594-19.039-6.594h-1.07l-127.082,65.934l0.41,10.301l0.332,0.328
		c0.16,0.246,1.145,1.313,2.602,3.012l-13.289,8.352l-0.133-0.137l-6.25,4.094c-30.578-29.25-91.149-49.274-160.95-49.274
		c-81.836,0-150.981,27.446-174.059,65.191c-6.676,10.958-8.734,24.145-6.511,36.836v0.25c1.238,6.84,3.546,13.434,7.336,19.199
		c8.406,13.187,22.5,25.141,40.797,34.946C55.914,267.184,112.45,231.5,181.43,231.5c68.902,0,125.438,35.684,132.36,81.422
		c18.297-9.805,32.39-21.758,40.797-34.946c3.789-5.766,6.098-12.359,7.336-19.199v-0.25c2.058-11.535,0.492-23.488-4.863-33.785
		v-0.008l8.906-5.324l-0.063-0.066l12.524-7.602c2.301,2.71,4.515,5.258,6.406,7.312l0.578,0.578l120.738-67.75l0.329-0.242
		l0.164-0.332c0.082-0.165,4.203-9.645,4.203-9.645l0.578-1.317c0,0,0.164-0.496,0.493-1.402l0.082-1.156
		C512.08,130.457,510.021,124.687,505.9,120.484z M388.458,201.004c-3.625-4.122-11.043-12.527-16.566-18.707l115.961-60.164
		c5.52,0.164,9.641,1.566,12.195,4.203c2.227,2.226,3.547,5.606,3.711,9.89L388.458,201.004z" style="fill: rgb(75, 75, 75);"></path>
	<path class="st0" d="M358.606,296.406c-28.082,35.793-96.851,61.086-177.215,61.086c-80.363,0-149.133-25.294-177.215-61.086
		c-1.347-1.718-4.09-0.019-3.207,1.977c25.742,58.039,96.809,99.726,180.422,99.726c83.618,0,154.68-41.687,180.422-99.726
		C362.697,296.387,359.954,294.688,358.606,296.406z" style="fill: rgb(75, 75, 75);"></path>
	<path class="st0" d="M486.041,129.054c-2.887,0.66-4.863,3.051-4.371,5.442c0.496,2.309,3.297,3.707,6.183,3.047
		c2.965-0.574,4.86-3.047,4.367-5.356C491.724,129.878,488.923,128.48,486.041,129.054z" style="fill: rgb(75, 75, 75);"></path>
</g>
</svg>
