<svg xmlns="http://www.w3.org/2000/svg" xmlns:xlink="http://www.w3.org/1999/xlink" width="1080" zoomAndPan="magnify" viewBox="0 0 810 809.999993" height="1080" preserveAspectRatio="xMidYMid meet" version="1.2"><defs><clipPath id="b75a88a85c"><path d="M 117 11.089844 L 692.953125 11.089844 L 692.953125 798.589844 L 117 798.589844 Z M 117 11.089844 "/></clipPath></defs><g id="ac207e57a3"><g clip-rule="nonzero" clip-path="url(#b75a88a85c)"><path style=" stroke:none;fill-rule:nonzero;fill:#3b332a;fill-opacity:1;" d="M 367.796875 256.007812 C 379.257812 261.769531 392.105469 264.65625 404.957031 264.65625 C 417.808594 264.65625 430.65625 261.769531 442.117188 256.007812 C 472.070312 240.9375 489.257812 207.582031 490.515625 162.078125 C 490.53125 161.554688 491.527344 109.003906 453.226562 70.261719 C 442.867188 59.789062 426.085938 47.296875 404.957031 47.296875 C 383.832031 47.296875 367.050781 59.789062 356.691406 70.261719 C 318.390625 109.003906 319.386719 161.554688 319.402344 162.082031 C 320.660156 207.582031 337.84375 240.941406 367.796875 256.007812 Z M 365.578125 79.050781 C 374.261719 70.265625 388.144531 59.796875 404.957031 59.796875 C 421.769531 59.796875 435.652344 70.265625 444.335938 79.050781 C 478.375 113.480469 478.035156 161.261719 478.023438 161.734375 C 476.894531 202.425781 462.148438 231.941406 436.5 244.84375 C 417.042969 254.632812 392.867188 254.632812 373.410156 244.84375 C 347.761719 231.941406 333.015625 202.425781 331.890625 161.734375 C 331.878906 161.261719 331.539062 113.480469 365.578125 79.050781 Z M 692.042969 533.550781 C 692.632812 531.878906 692.484375 530.03125 691.632812 528.476562 L 560.976562 289.886719 C 546.621094 263.675781 516.714844 251.679688 488.988281 259.9375 C 506.527344 238.605469 526.257812 205.128906 526.5625 162.210938 C 526.867188 119.738281 508.484375 74.644531 478.589844 44.535156 C 456.867188 22.65625 431.40625 11.09375 404.957031 11.089844 C 404.957031 11.089844 404.957031 11.089844 404.953125 11.089844 C 378.507812 11.09375 353.046875 22.65625 331.324219 44.535156 C 301.429688 74.644531 283.042969 119.738281 283.347656 162.210938 C 283.65625 205.128906 303.386719 238.601562 320.925781 259.9375 C 293.199219 251.683594 263.292969 263.679688 248.941406 289.890625 L 118.28125 528.476562 C 117.429688 530.03125 117.28125 531.878906 117.871094 533.550781 C 118.460938 535.226562 119.734375 536.574219 121.375 537.25 L 237.882812 585.429688 L 204.210938 725.535156 C 203.789062 727.296875 204.152344 729.160156 205.210938 730.636719 C 206.269531 732.113281 207.917969 733.054688 209.726562 733.214844 C 233.582031 735.371094 254.433594 742.332031 271.699219 753.90625 C 282.84375 761.378906 290.726562 769.535156 297.6875 776.726562 C 308.195312 787.589844 317.273438 796.976562 332.273438 798.386719 C 333.503906 798.5 334.738281 798.558594 335.972656 798.558594 C 349.910156 798.558594 364.277344 791.21875 378.753906 776.6875 L 431.164062 776.6875 C 445.644531 791.21875 460.003906 798.558594 473.945312 798.558594 C 475.179688 798.558594 476.414062 798.5 477.644531 798.386719 C 492.648438 796.976562 501.722656 787.589844 512.234375 776.726562 C 519.191406 769.535156 527.074219 761.378906 538.222656 753.90625 C 555.488281 742.332031 576.335938 735.371094 600.195312 733.214844 C 602.003906 733.054688 603.652344 732.113281 604.710938 730.636719 C 605.765625 729.164062 606.132812 727.296875 605.707031 725.535156 L 572.035156 585.429688 L 688.542969 537.25 C 690.179688 536.574219 691.457031 535.230469 692.042969 533.550781 Z M 340.191406 53.339844 C 359.519531 33.875 381.914062 23.589844 404.957031 23.589844 C 427.996094 23.589844 450.394531 33.878906 469.722656 53.34375 C 496.9375 80.753906 514.34375 123.453125 514.066406 162.125 C 513.675781 216.785156 478.632812 255.082031 462.433594 269.871094 C 443.707031 275.824219 423.871094 279.023438 404.957031 279.023438 C 386.042969 279.023438 366.203125 275.820312 347.476562 269.871094 C 331.277344 255.078125 296.234375 216.78125 295.84375 162.125 C 295.566406 123.453125 312.976562 80.753906 340.191406 53.339844 Z M 132.589844 528.367188 L 152.476562 492.054688 L 250.574219 532.621094 L 240.839844 573.128906 Z M 540.234375 738.058594 C 537.5625 702.472656 532.953125 666.742188 526.460938 631.71875 C 519.1875 592.445312 509.421875 553.214844 497.4375 515.121094 C 496.402344 511.828125 492.894531 509.996094 489.601562 511.035156 C 486.3125 512.070312 484.480469 515.578125 485.515625 518.871094 C 497.347656 556.484375 506.988281 595.21875 514.171875 633.996094 C 520.984375 670.75 525.707031 708.289062 528.253906 745.613281 C 517.617188 753.191406 510.011719 761.042969 503.246094 768.039062 C 493.742188 777.867188 486.875 784.96875 476.472656 785.945312 C 465.28125 786.988281 453.027344 780.910156 440.046875 767.882812 L 440.046875 582.167969 C 440.046875 578.714844 437.246094 575.917969 433.796875 575.917969 C 430.347656 575.917969 427.546875 578.714844 427.546875 582.167969 L 427.546875 764.195312 L 382.367188 764.195312 L 382.367188 582.167969 C 382.367188 578.714844 379.570312 575.917969 376.117188 575.917969 C 372.667969 575.917969 369.867188 578.714844 369.867188 582.167969 L 369.867188 767.882812 C 356.886719 780.910156 344.625 786.984375 333.441406 785.945312 C 323.039062 784.96875 316.171875 777.863281 306.667969 768.039062 C 299.902344 761.042969 292.296875 753.191406 281.660156 745.613281 C 284.207031 708.292969 288.929688 670.753906 295.738281 633.996094 C 302.925781 595.21875 312.566406 556.484375 324.398438 518.871094 C 325.433594 515.578125 323.601562 512.070312 320.308594 511.035156 C 317.015625 509.996094 313.511719 511.828125 312.472656 515.121094 C 300.492188 553.214844 290.726562 592.445312 283.449219 631.71875 C 276.960938 666.75 272.351562 702.472656 269.679688 738.058594 C 254.464844 729.613281 237.15625 724.074219 218.015625 721.5625 L 317.300781 308.457031 C 318.105469 305.101562 316.039062 301.726562 312.683594 300.921875 C 309.332031 300.121094 305.953125 302.179688 305.148438 305.535156 L 253.53125 520.316406 L 158.515625 481.027344 L 259.898438 295.890625 C 272.417969 273.03125 299.714844 263.671875 323.390625 274.121094 C 355.960938 288.5 385.722656 291.519531 404.957031 291.519531 C 424.191406 291.519531 453.953125 288.5 486.523438 274.121094 C 510.199219 263.671875 537.492188 273.027344 550.015625 295.890625 L 651.398438 481.027344 L 556.386719 520.316406 L 504.765625 305.535156 C 503.957031 302.179688 500.582031 300.113281 497.226562 300.917969 C 493.871094 301.726562 491.804688 305.101562 492.613281 308.453125 L 591.898438 721.5625 C 572.753906 724.074219 555.449219 729.609375 540.234375 738.058594 Z M 569.078125 573.128906 L 559.34375 532.621094 L 657.4375 492.054688 L 677.324219 528.367188 Z M 569.078125 573.128906 "/><path style=" stroke:none;fill-rule:nonzero;fill:#3b332a;fill-opacity:1;" d="M 367.796875 256.007812 C 379.257812 261.769531 392.105469 264.65625 404.957031 264.65625 C 417.808594 264.65625 430.65625 261.769531 442.117188 256.007812 C 472.070312 240.9375 489.257812 207.582031 490.515625 162.078125 C 490.53125 161.554688 491.527344 109.003906 453.226562 70.261719 C 442.867188 59.789062 426.085938 47.296875 404.957031 47.296875 C 383.832031 47.296875 367.050781 59.789062 356.691406 70.261719 C 318.390625 109.003906 319.386719 161.554688 319.402344 162.082031 C 320.660156 207.582031 337.84375 240.941406 367.796875 256.007812 Z M 365.578125 79.050781 C 374.261719 70.265625 388.144531 59.796875 404.957031 59.796875 C 421.769531 59.796875 435.652344 70.265625 444.335938 79.050781 C 478.375 113.480469 478.035156 161.261719 478.023438 161.734375 C 476.894531 202.425781 462.148438 231.941406 436.5 244.84375 C 417.042969 254.632812 392.867188 254.632812 373.410156 244.84375 C 347.761719 231.941406 333.015625 202.425781 331.890625 161.734375 C 331.878906 161.261719 331.539062 113.480469 365.578125 79.050781 Z M 692.042969 533.550781 C 692.632812 531.878906 692.484375 530.03125 691.632812 528.476562 L 560.976562 289.886719 C 546.621094 263.675781 516.714844 251.679688 488.988281 259.9375 C 506.527344 238.605469 526.257812 205.128906 526.5625 162.210938 C 526.867188 119.738281 508.484375 74.644531 478.589844 44.535156 C 456.867188 22.65625 431.40625 11.09375 404.957031 11.089844 C 404.957031 11.089844 404.957031 11.089844 404.953125 11.089844 C 378.507812 11.09375 353.046875 22.65625 331.324219 44.535156 C 301.429688 74.644531 283.042969 119.738281 283.347656 162.210938 C 283.65625 205.128906 303.386719 238.601562 320.925781 259.9375 C 293.199219 251.683594 263.292969 263.679688 248.941406 289.890625 L 118.28125 528.476562 C 117.429688 530.03125 117.28125 531.878906 117.871094 533.550781 C 118.460938 535.226562 119.734375 536.574219 121.375 537.25 L 237.882812 585.429688 L 204.210938 725.535156 C 203.789062 727.296875 204.152344 729.160156 205.210938 730.636719 C 206.269531 732.113281 207.917969 733.054688 209.726562 733.214844 C 233.582031 735.371094 254.433594 742.332031 271.699219 753.90625 C 282.84375 761.378906 290.726562 769.535156 297.6875 776.726562 C 308.195312 787.589844 317.273438 796.976562 332.273438 798.386719 C 333.503906 798.5 334.738281 798.558594 335.972656 798.558594 C 349.910156 798.558594 364.277344 791.21875 378.753906 776.6875 L 431.164062 776.6875 C 445.644531 791.21875 460.003906 798.558594 473.945312 798.558594 C 475.179688 798.558594 476.414062 798.5 477.644531 798.386719 C 492.648438 796.976562 501.722656 787.589844 512.234375 776.726562 C 519.191406 769.535156 527.074219 761.378906 538.222656 753.90625 C 555.488281 742.332031 576.335938 735.371094 600.195312 733.214844 C 602.003906 733.054688 603.652344 732.113281 604.710938 730.636719 C 605.765625 729.164062 606.132812 727.296875 605.707031 725.535156 L 572.035156 585.429688 L 688.542969 537.25 C 690.179688 536.574219 691.457031 535.230469 692.042969 533.550781 Z M 340.191406 53.339844 C 359.519531 33.875 381.914062 23.589844 404.957031 23.589844 C 427.996094 23.589844 450.394531 33.878906 469.722656 53.34375 C 496.9375 80.753906 514.34375 123.453125 514.066406 162.125 C 513.675781 216.785156 478.632812 255.082031 462.433594 269.871094 C 443.707031 275.824219 423.871094 279.023438 404.957031 279.023438 C 386.042969 279.023438 366.203125 275.820312 347.476562 269.871094 C 331.277344 255.078125 296.234375 216.78125 295.84375 162.125 C 295.566406 123.453125 312.976562 80.753906 340.191406 53.339844 Z M 132.589844 528.367188 L 152.476562 492.054688 L 250.574219 532.621094 L 240.839844 573.128906 Z M 540.234375 738.058594 C 537.5625 702.472656 532.953125 666.742188 526.460938 631.71875 C 519.1875 592.445312 509.421875 553.214844 497.4375 515.121094 C 496.402344 511.828125 492.894531 509.996094 489.601562 511.035156 C 486.3125 512.070312 484.480469 515.578125 485.515625 518.871094 C 497.347656 556.484375 506.988281 595.21875 514.171875 633.996094 C 520.984375 670.75 525.707031 708.289062 528.253906 745.613281 C 517.617188 753.191406 510.011719 761.042969 503.246094 768.039062 C 493.742188 777.867188 486.875 784.96875 476.472656 785.945312 C 465.28125 786.988281 453.027344 780.910156 440.046875 767.882812 L 440.046875 582.167969 C 440.046875 578.714844 437.246094 575.917969 433.796875 575.917969 C 430.347656 575.917969 427.546875 578.714844 427.546875 582.167969 L 427.546875 764.195312 L 382.367188 764.195312 L 382.367188 582.167969 C 382.367188 578.714844 379.570312 575.917969 376.117188 575.917969 C 372.667969 575.917969 369.867188 578.714844 369.867188 582.167969 L 369.867188 767.882812 C 356.886719 780.910156 344.625 786.984375 333.441406 785.945312 C 323.039062 784.96875 316.171875 777.863281 306.667969 768.039062 C 299.902344 761.042969 292.296875 753.191406 281.660156 745.613281 C 284.207031 708.292969 288.929688 670.753906 295.738281 633.996094 C 302.925781 595.21875 312.566406 556.484375 324.398438 518.871094 C 325.433594 515.578125 323.601562 512.070312 320.308594 511.035156 C 317.015625 509.996094 313.511719 511.828125 312.472656 515.121094 C 300.492188 553.214844 290.726562 592.445312 283.449219 631.71875 C 276.960938 666.75 272.351562 702.472656 269.679688 738.058594 C 254.464844 729.613281 237.15625 724.074219 218.015625 721.5625 L 317.300781 308.457031 C 318.105469 305.101562 316.039062 301.726562 312.683594 300.921875 C 309.332031 300.121094 305.953125 302.179688 305.148438 305.535156 L 253.53125 520.316406 L 158.515625 481.027344 L 259.898438 295.890625 C 272.417969 273.03125 299.714844 263.671875 323.390625 274.121094 C 355.960938 288.5 385.722656 291.519531 404.957031 291.519531 C 424.191406 291.519531 453.953125 288.5 486.523438 274.121094 C 510.199219 263.671875 537.492188 273.027344 550.015625 295.890625 L 651.398438 481.027344 L 556.386719 520.316406 L 504.765625 305.535156 C 503.957031 302.179688 500.582031 300.113281 497.226562 300.917969 C 493.871094 301.726562 491.804688 305.101562 492.613281 308.453125 L 591.898438 721.5625 C 572.753906 724.074219 555.449219 729.609375 540.234375 738.058594 Z M 569.078125 573.128906 L 559.34375 532.621094 L 657.4375 492.054688 L 677.324219 528.367188 Z M 569.078125 573.128906 "/></g></g></svg>