<!--?xml version="1.0" encoding="utf-8"?-->
<!-- Generator: Adobe Illustrator 18.1.1, SVG Export Plug-In . SVG Version: 6.00 Build 0)  -->

<svg version="1.1" id="_x31_0" xmlns="http://www.w3.org/2000/svg" xmlns:xlink="http://www.w3.org/1999/xlink" x="0px" y="0px" viewBox="0 0 512 512" style="width: 256px; height: 256px; opacity: 1;" xml:space="preserve">
<style type="text/css">
	.st0{fill:#374149;}
</style>
<g>
	<path class="st0" d="M451.408,129.258l-25.441-0.121c1.328-1.18,2.609-2.379,3.801-3.594c5.961-6.106,10.434-13.133,13.038-20.398
		c1.258-3.586,2.141-7.45,2.657-12.012c0.137-2.004,0.23-4.008,0.23-6.008l0.046-0.234l-0.511-5.774l-0.141-0.793l-0.278-1.488
		c-0.094-0.699-0.281-1.402-0.465-2.098l-0.187-0.742c-0.418-1.863-1.118-3.637-1.77-5.172l-0.187-0.606
		c-1.395-3.168-3.305-6.426-5.867-10.058c-4.145-5.59-9.176-10.988-14.856-15.926c-1.305-1.118-2.511-2.328-3.82-3.539
		c-3.817-3.726-8.195-7.965-14.106-10.621c-7.035-3.164-15.324-5.074-23.984-5.539c-1.352-0.047-2.699-0.094-4.051-0.094
		c-6.102,0-12.481,0.699-19.094,2.046c-8.367,1.758-16.695,4.551-25.176,8.309c-2.121,0.898-4.254,1.828-6.426,2.84
		c1.875-1.977,3.805-3.942,5.875-5.84c6.523-5.902,14.117-11.382,22.566-14.934c4.578-1.906,9.394-3.203,14.242-3.546
		c1.516-0.074,3.028-0.114,4.559,0.015c6.542-0.641,11.586-3.793,11.343-7.156c-0.117-1.622-1.371-2.938-3.394-3.863
		c-1.438-0.555-2.902-0.942-4.402-1.238c-0.042-0.039-0.086-0.035-0.121-0.031C372.322,0.332,369.104,0,365.943,0
		c-6.027,0.016-11.82,1.102-17.293,2.742c-10.859,3.406-20.281,8.992-28.469,15.062c-8.141,6.195-15.164,12.926-21.07,19.652
		c-11.148,12.626-18.343,25.18-22.828,34.902c-0.035,0.078-0.09,0.176-0.125,0.25c-3.676-1.954-7.832-3.043-12.125-3.043H247.92
		c-4.282,0-8.422,1.086-12.09,3.023c-4.477-9.754-11.715-22.414-22.946-35.133C206.982,30.73,199.959,24,191.818,17.805
		c-8.187-6.07-17.61-11.656-28.469-15.062C157.877,1.102,152.084,0.016,146.053,0c-3.156,0-6.375,0.332-9.543,1.043
		c-0.039-0.004-0.078-0.008-0.121,0.031c-1.496,0.297-2.965,0.683-4.402,1.238c-2.023,0.926-3.278,2.242-3.394,3.863
		c-0.242,3.363,4.801,6.515,11.347,7.156c1.524-0.129,3.039-0.09,4.551-0.015c4.847,0.343,9.668,1.64,14.246,3.546
		c8.449,3.551,16.042,9.031,22.566,14.934c1.125,1.031,2.133,2.114,3.191,3.172c0.875,0.93,1.836,1.793,2.625,2.805
		c-10.707-5.313-21.114-9.094-31.59-11.328c-6.614-1.305-12.993-2.004-19.094-2.004c-1.352,0-2.699,0.046-4.051,0.094
		c-8.66,0.465-16.953,2.375-23.984,5.539c-5.914,2.656-10.29,6.894-14.11,10.621c-1.305,1.211-2.516,2.422-3.817,3.539
		c-5.683,4.938-10.71,10.336-14.949,16.019c-2.469,3.539-4.379,6.797-5.821,10.106l-0.14,0.465c-0.653,1.535-1.352,3.309-1.77,5.172
		l-0.188,0.695c-0.187,0.699-0.324,1.446-0.465,2.051l-0.371,2.141l-0.515,5.777v0.465c0,2,0.094,4.004,0.234,6.286
		c0.512,4.332,1.394,8.148,2.656,11.687c2.606,7.313,7.078,14.34,13.039,20.446c0.726,0.742,1.539,1.465,2.32,2.195
		c0.489,0.504,0.969,0.957,1.454,1.519H26.354V277.25h199.328h0.61l0,0h0.16V133.086h59.074h0.019V277.25h200.102V129.258H451.408z
		 M300.604,112.664c3.633-7.168,9.355-16.519,18.054-26.566c5.914-6.797,12.57-13.039,19.789-18.582
		c8.848-6.61,17.742-11.547,26.454-14.618c6.472-2.238,12.758-3.406,18.671-3.406c3.821,0,7.497,0.516,10.946,1.496l2.282,0.606
		c4.374,1.118,8.847,2.234,11.594,5.122c3.309,3.21,5.637,7.449,6.707,12.339c0.652,2.469,0.886,5.078,1.023,6.942l0.234,4.422
		l-0.047,0.047l0.047,1.77l-0.234,4.469c-0.23,0.977-0.418,1.863-0.512,2.469c-0.606,2.234-1.258,4.05-2.05,5.539
		c-3.305,6.382-10.149,11.969-19.742,16.113c-7.918,3.402-17.512,5.778-29.199,7.219c-5.914,0.652-11.969,0.976-18.019,0.976
		c-3.543,0-7.126-0.09-10.618-0.324c-7.871-0.554-15.695-1.582-23.984-3.211c-3.965-0.808-7.477-1.699-10.52-2.558
		C301.202,112.836,300.873,112.758,300.604,112.664z M211.33,112.699c-3.207,0.926-7.059,1.902-11.375,2.785
		c-8.289,1.63-16.114,2.657-23.985,3.211c-3.492,0.234-7.078,0.324-10.617,0.324c-6.054,0-12.106-0.324-17.973-0.976
		c-11.738-1.442-21.332-3.817-29.246-7.219c-9.594-4.144-16.438-9.73-19.742-16.113c-0.746-1.489-1.446-3.305-1.961-5.074
		c-0.188-0.977-0.371-1.957-0.602-2.934l-0.234-4.469l0.046-1.863l-0.046-0.047l0.234-4.238c0.137-1.953,0.371-4.562,1.023-7.171
		c1.07-4.75,3.398-8.989,6.844-12.34c2.609-2.746,7.078-3.863,11.41-4.981l2.375-0.606c3.398-0.98,7.078-1.496,10.898-1.496
		c5.914,0,12.199,1.168,18.672,3.406c8.754,3.07,17.649,8.008,26.406,14.618c7.262,5.542,13.922,11.785,19.836,18.582
		c7.527,8.695,12.726,16.805,16.371,23.477C210.221,110.617,210.814,111.641,211.33,112.699z" style="fill: rgb(75, 75, 75);"></path>
	<rect x="53.146" y="305.32" class="st0" width="173.305" height="206.68" style="fill: rgb(75, 75, 75);"></rect>
	<rect x="285.545" y="305.32" class="st0" width="173.309" height="206.68" style="fill: rgb(75, 75, 75);"></rect>
</g>
</svg>
