<!--?xml version="1.0" encoding="utf-8"?-->
<!-- Generator: Adobe Illustrator 19.1.1, SVG Export Plug-In . SVG Version: 6.00 Build 0)  -->
<svg version="1.1" id="_x31_0" xmlns="http://www.w3.org/2000/svg" xmlns:xlink="http://www.w3.org/1999/xlink" x="0px" y="0px" viewBox="0 0 512 512" style="width: 256px; height: 256px; opacity: 1;" xml:space="preserve">
<style type="text/css">
	.st0{fill:#374149;}
</style>
<g>
	<polygon class="st0" points="232.641,124.726 232.481,124.726 232.637,124.57 133.75,124.57 133.446,124.57 133.446,124.57 
		133.289,124.57 133.289,224.836 191.766,165.82 	" style="fill: rgb(75, 75, 75);"></polygon>
	<polygon class="st0" points="190.535,199.746 149.539,240.93 149.699,240.93 149.539,241.09 248.89,241.09 248.89,182.047 
		249,141.008 248.89,141.121 248.89,140.894 	" style="fill: rgb(75, 75, 75);"></polygon>
	<polygon class="st0" points="378.824,124.57 283.836,124.57 283.547,124.57 283.547,124.57 283.386,124.57 283.386,144.805 
		378.824,144.805 	" style="fill: rgb(75, 75, 75);"></polygon>
	<rect x="283.386" y="172.711" class="st0" width="95.438" height="20.234" style="fill: rgb(75, 75, 75);"></rect>
	<polygon class="st0" points="340.266,220.851 283.718,220.851 283.547,220.851 283.547,220.851 283.386,220.851 283.386,241.09 
		340.266,241.09 	" style="fill: rgb(75, 75, 75);"></polygon>
	<polygon class="st0" points="133.289,305.859 133.289,306.019 378.824,306.019 378.824,286.09 134.195,286.09 133.446,286.086 
		133.446,286.09 133.289,286.09 133.289,305.738 133.289,305.859 	" style="fill: rgb(75, 75, 75);"></polygon>
	<polygon class="st0" points="133.289,362.211 283.386,362.211 283.386,342.558 283.386,342.438 283.386,342.438 283.386,342.278 
		133.906,342.278 133.446,342.278 133.446,342.278 133.289,342.278 133.289,361.93 133.289,362.047 133.289,362.047 	" style="fill: rgb(75, 75, 75);"></polygon>
	<path class="st0" d="M433.946,0H78.172C59.313,0,43.906,15.406,43.906,34.266v385.371l-0.039,92.207l0.039-0.012V512l83.554-19.93
		l64.321,15.328l64.312-15.328l64.321,15.328l64.312-15.328L468.133,512V34.266C468.133,15.406,452.801,0,433.946,0z
		 M82.234,463.438V38.328h347.57V382.57l-0.039,80.894l-45.039-10.797L320.414,468l-64.321-15.332L191.782,468l-64.321-15.332
		l-36.801,8.793L82.234,463.438z" style="fill: rgb(75, 75, 75);"></path>
</g>
</svg>
