<!--?xml version="1.0" encoding="utf-8"?-->
<!-- Generator: Adobe Illustrator 24.1.1, SVG Export Plug-In . SVG Version: 6.00 Build 0)  -->
<svg version="1.1" id="_x31_0" xmlns="http://www.w3.org/2000/svg" xmlns:xlink="http://www.w3.org/1999/xlink" x="0px" y="0px" viewBox="0 0 512 512" style="width: 256px; height: 256px; opacity: 1;" xml:space="preserve">
<style type="text/css">
	.st0{fill:#374149;}
</style>
<g>
	<path class="st0" d="M403.689,82.226h-5.598V46.57c0-25.676-20.89-46.57-46.57-46.57H150.1c-25.68,0-46.57,20.894-46.57,46.57
		v428.793c0,9.23,7.508,16.738,16.738,16.738h261.086c9.23,0,16.738-7.508,16.738-16.738V346.762h5.598
		c2.641,0,4.782-2.141,4.782-4.781v-56.094c0-2.64-2.141-4.781-4.782-4.781h-5.598V147.883h5.598c2.641,0,4.782-2.141,4.782-4.782
		V87.008C408.471,84.367,406.33,82.226,403.689,82.226z M126.123,467.062v-90.164h249.375v90.164H126.123z M375.498,469.398v0.11
		H126.123v-0.11H375.498z M150.1,22.594h201.422c13.223,0,23.977,10.754,23.977,23.977v322.602H126.123V46.57
		C126.123,33.348,136.877,22.594,150.1,22.594z" style="fill: rgb(75, 75, 75);"></path>
	<path class="st0" d="M131.545,508.386c0,1.958,1.66,3.614,3.617,3.614h47.45c2.031,0,3.613-1.656,3.613-3.614V499.5h-54.679
		V508.386z" style="fill: rgb(75, 75, 75);"></path>
	<path class="st0" d="M320.205,508.386c0,1.958,1.656,3.614,3.617,3.614h47.442c2.035,0,3.617-1.656,3.617-3.614V499.5h-54.675
		V508.386z" style="fill: rgb(75, 75, 75);"></path>
	<path class="st0" d="M174.963,242.578h4.066c4.442,0,8.734-1.805,11.82-4.895c2.79-2.859,4.219-6.55,4.141-10.465l-1.805-80.21
		c-0.222-8.207-7.226-14.684-16.418-14.684c-8.813,0-15.813,6.477-15.965,14.684l-1.883,80.21c-0.074,3.914,1.43,7.606,4.219,10.465
		C166.15,240.774,170.444,242.578,174.963,242.578z M184.6,199.504l-5.422-5.879l-4.294-4.668l-5.57-6.023l0.825-37.809l5.648,6.102
		l2.489,2.637l5.418,5.871L184.6,199.504z" style="fill: rgb(75, 75, 75);"></path>
</g>
</svg>
