<!--?xml version="1.0" encoding="utf-8"?-->
<!-- Generator: Adobe Illustrator 19.2.1, SVG Export Plug-In . SVG Version: 6.00 Build 0)  -->
<svg version="1.1" id="_x31_0" xmlns="http://www.w3.org/2000/svg" xmlns:xlink="http://www.w3.org/1999/xlink" x="0px" y="0px" viewBox="0 0 512 512" style="enable-background:new 0 0 512 512;" xml:space="preserve">
<style type="text/css">
	.st0{fill:#374149;}
</style>
<g>
	<path class="st0" d="M455.249,396.113l-1.875,1.443c-5.264,3.965-11.322,6.49-17.812,7.282
		c-2.307,13.341-4.687,25.746-7.067,35.482c-7.355,29.852-28.485,44.348-53.868,44.348c-4.542,0-9.158-0.433-13.846-1.37
		c-31.37-5.986-49.902-19.109-53.508-48.531c-1.946-15.648,1.443-37.715,5.769-60.359c-2.811-4.113-5.48-8.511-8.292-13.63
		c-2.741-5.12-5.337-10.528-7.789-16.152c-1.298-3.028-2.595-6.059-3.822-9.377c-0.793,4.039-1.659,8.222-2.524,12.476
		c-6.634,32.091-13.486,65.334-10.457,90.359c2.596,21.126,11.25,38.147,25.672,50.478c12.187,10.454,28.485,17.451,49.758,21.56
		c6.418,1.229,12.837,1.877,19.038,1.877c39.734,0,70.526-25.025,80.334-65.19c3.894-15.936,7.859-38.366,11.249-60.574
		c-1.082,1.081-2.235,2.162-3.318,3.243C460.008,392.292,457.556,394.384,455.249,396.113z"></path>
	<path class="st0" d="M374.626,511.842c-6.126,0-12.52-0.63-19.007-1.874c-21.358-4.127-37.61-11.167-49.686-21.525
		c-14.404-12.316-23.023-29.265-25.618-50.379c-3.034-25.065,3.823-58.233,10.455-90.307l2.524-12.476
		c0.923,3.342,2.222,6.378,3.521,9.406c2.5,5.73,5.122,11.17,7.795,16.165c2.868,5.221,5.505,9.555,8.301,13.645
		c-4.203,21.755-7.794,44.212-5.794,60.288c3.38,27.584,19.421,42.138,53.635,48.667c4.548,0.911,9.217,1.374,13.874,1.374
		c27.369,0,47.058-16.208,54.021-44.468c2.143-8.765,4.455-20.374,7.07-35.494c6.341-0.66,12.359-3.119,17.752-7.182l1.876-1.444
		c2.486-1.864,4.92-3.976,7.658-6.645l3.319-3.245c-2.963,17.529-7.103,42.372-11.514,60.425
		C445.006,486.91,414.283,511.842,374.626,511.842z"></path>
	<path class="st0" d="M490.367,78.817c-12.764-25.239-25.022-42.042-39.662-54.514C431.667,8.148,408.375,0,381.549,0h-2.956
		c-24.23,0.503-46.08,12.62-61.657,34.035c-14.927,20.553-23.292,48.098-24.878,81.993c-0.145,3.102-0.289,6.201-0.434,9.233
		c-0.936,17.306-1.802,35.116,0.362,58.915c0.938-2.958,2.091-5.771,3.245-8.51c2.597-5.986,5.914-12.257,9.735-18.387
		c2.956-4.905,6.706-10.243,11.106-16.082c0.721-0.94,1.514-1.947,2.307-2.887c0.288-6.993,0.722-13.845,1.01-21.056
		c2.739-59.782,29.638-89.345,59.782-89.997h2.378c43.629,0,65.478,26.321,84.517,63.891c13.341,26.468,16.802,62.739,14.35,93.746
		c2.307,3.679,4.326,7.285,6.129,10.891c3.03,5.841,5.914,12.257,8.51,19.038c2.018,5.334,3.749,10.239,5.264,14.852
		c1.154-4.324,2.162-8.148,2.885-11.465C511.785,178.405,511.136,119.852,490.367,78.817z"></path>
	<path class="st0" d="M500.302,229.124c-1.476-4.47-3.154-9.212-5.101-14.355c-2.551-6.666-5.417-13.078-8.517-19.058
		c-1.854-3.707-3.862-7.273-6.134-10.901c2.86-35.789-2.377-69.99-14.344-93.734c-19.459-38.402-41.303-63.978-84.658-63.978h-2.379
		c-33.936,0.734-57.463,36.118-59.939,90.146c-0.15,3.726-0.336,7.356-0.523,10.957c-0.174,3.371-0.346,6.72-0.486,10.102
		c-0.758,0.845-1.554,1.854-2.275,2.798c-4.815,6.389-8.347,11.503-11.116,16.096c-3.841,6.16-7.121,12.354-9.745,18.405
		c-1.157,2.746-2.312,5.565-3.25,8.526c-1.917-24.434-0.927-42.723-0.053-58.862l0.433-9.231
		c1.583-33.826,9.944-61.386,24.849-81.908c15.568-21.405,37.422-33.469,61.532-33.97h2.953c26.846,0,50.081,8.165,69.054,24.264
		c14.677,12.505,26.898,29.302,39.624,54.466c20.758,41.017,21.398,99.512,12.822,139.291
		C502.356,221.36,501.399,225.011,500.302,229.124z"></path>
	<path class="st0" d="M218.86,335.324c-1.226,3.243-2.451,6.345-3.821,9.302c-2.453,5.624-5.049,11.032-7.789,16.082
		c-2.741,5.19-5.409,9.662-8.292,13.771c4.398,22.574,7.714,44.641,5.768,60.289c-3.606,29.422-22.138,42.546-53.436,48.531
		c-4.758,0.937-9.374,1.37-13.917,1.37c-25.384,0-46.514-14.496-53.796-44.348c-2.38-9.736-4.833-22.142-7.068-35.482
		c-6.418-0.793-12.619-3.318-17.811-7.282l-1.947-1.443c-2.307-1.729-4.832-3.965-7.716-6.704c-1.082-1.011-2.163-2.092-3.246-3.173
		c3.39,22.208,7.356,44.638,11.25,60.574c9.808,40.166,40.6,65.19,80.334,65.19c6.273,0,12.62-0.648,19.037-1.877
		c21.274-4.109,37.571-11.106,49.759-21.56c14.422-12.331,23.075-29.352,25.671-50.478c3.029-25.025-3.822-58.268-10.457-90.359
		C220.52,343.472,219.654,339.362,218.86,335.324z"></path>
	<path class="st0" d="M137.374,511.842c-39.657,0-70.381-24.933-80.182-65.07c-4.41-18.053-8.55-42.896-11.246-60.56
		c0.866,1.267,1.925,2.325,2.982,3.31c3.141,2.982,5.597,5.118,7.73,6.716l1.947,1.445c5.215,3.982,11.401,6.51,17.887,7.31
		c2.153,13.537,4.598,25.81,6.934,35.363c6.894,28.262,26.558,44.47,53.949,44.47c4.701,0,9.262-0.449,13.948-1.374
		c34.163-6.533,50.182-21.089,53.562-48.667c2.056-16.521-1.764-39.773-5.77-60.338c2.792-3.894,5.429-8.274,8.276-13.666
		c2.623-4.835,5.246-10.25,7.794-16.092c1.37-2.958,2.598-6.063,3.824-9.31l1.31,7.924l0.912,4.452
		c6.633,32.077,13.49,65.242,10.454,90.31c-2.594,21.113-11.212,38.063-25.616,50.379c-12.076,10.358-28.329,17.398-49.686,21.525
		C149.894,511.212,143.498,511.842,137.374,511.842z"></path>
	<path class="st0" d="M31.584,184.824c-2.379-31.007,1.01-67.208,14.422-93.676c19.038-37.57,40.816-63.891,84.445-63.891h2.378
		c30.143,0.652,57.042,30.215,59.854,89.997c0.289,7.211,0.722,14.063,1.01,21.056c0.794,0.94,1.515,1.877,2.235,2.814
		c4.4,5.842,8.078,11.18,11.25,16.44c3.678,5.846,6.994,12.046,9.663,18.246c1.154,2.67,2.235,5.479,3.245,8.437
		c2.164-23.87,1.226-41.679,0.289-58.986c-0.144-3.032-0.289-6.13-0.433-9.233c-1.586-33.894-9.952-61.44-24.806-81.993
		C179.559,12.62,157.637,0.503,133.407,0h-2.956c-26.827,0-50.047,8.148-69.085,24.303c-14.711,12.471-26.97,29.274-39.734,54.514
		C0.864,119.852,0.215,178.334,8.796,218.211c0.722,3.317,1.73,7.141,2.957,11.465c1.443-4.613,3.174-9.518,5.121-14.708
		c2.667-6.852,5.552-13.271,8.653-19.327C27.33,192.106,29.349,188.574,31.584,184.824z"></path>
	<path class="st0" d="M11.761,229.126c-1.16-4.113-2.118-7.766-2.81-10.946c-8.564-39.8-7.921-98.303,12.822-139.291
		c12.743-25.197,24.986-41.994,39.696-54.463C80.442,8.323,103.65,0.158,130.45,0.158h2.956
		c24.154,0.501,46.033,12.565,61.602,33.97c14.858,20.559,23.194,48.116,24.776,81.908l0.433,9.231
		c0.929,17.177,1.89,34.938-0.288,58.966c-0.705-3-1.789-5.814-2.943-8.484c-2.614-6.075-5.87-12.222-9.675-18.27
		c-3.059-5.074-6.742-10.456-11.257-16.45c-0.723-0.939-1.446-1.879-2.242-2.821c-0.101-3.275-0.274-6.614-0.447-9.976
		c-0.187-3.61-0.374-7.25-0.524-10.984c-2.542-54.032-26.097-89.416-60.008-90.148h-2.383c-43.294,0-65.126,25.576-84.585,63.978
		c-11.941,23.563-17.203,57.737-14.439,93.758c-2.215,3.662-4.235,7.196-6.04,10.735c-3.13,6.11-6.043,12.617-8.661,19.341
		C14.848,219.918,13.172,224.657,11.761,229.126z"></path>
	<path class="st0" d="M486.118,237.803c-1.41-6.522-3.19-12.705-5.043-18.831c-1.838-6.134-3.935-12.106-6.166-17.986
		c-2.263-5.866-4.796-11.556-7.629-17.021c-2.802-5.486-5.961-10.697-9.308-15.736c-3.325-5.056-6.776-9.99-10.299-14.842
		c-7.079-9.676-14.511-18.982-22.278-27.908c-3.25-3.723-25.473-29.117-32.683-37.355c-1.304-1.49-3.487-1.81-5.17-0.768
		l-15.623,9.672c-4.994,3.092-9.755,6.56-14.266,10.317c-4.555,3.712-8.813,7.775-12.897,11.987
		c-3.879,3.999-7.52,8.22-10.92,12.634c-3.761,4.881-7.332,9.897-10.527,15.161c-3.112,4.951-5.896,10.124-8.203,15.529
		c-2.338,5.387-4.206,10.996-5.679,16.711c-1.45,5.725-2.704,11.454-3.675,17.214c-1.014,5.75-1.951,11.444-2.843,17.151
		c-0.882,5.712-1.662,11.451-2.157,17.406c-0.274,3.014-0.398,5.936-0.384,9.267l0.078,2.616l0.096,2.078l0.05,0.993l0.006,0.123
		c-0.049-0.292,0.07,0.469,0.062,0.416l0.008,0.07l0.033,0.278l0.056,0.559l0.208,2.243c0.662,5.87,1.35,11.522,2.207,17.113
		c0.818,5.591,1.832,11.088,3.046,16.49c1.258,5.384,2.75,10.662,4.58,15.782c1.824,5.123,3.788,10.173,5.962,15.116
		c2.17,4.947,4.506,9.806,7.06,14.56c2.57,4.767,5.294,9.366,8.533,13.919c5.093,7.129,15.656,9.498,23.865,2.725
		c4.77-3.937,6.398-10.577,4.641-16.506l-0.085-0.286c-1.43-4.937-3.246-9.884-5.151-14.697c-1.922-4.828-3.972-9.585-6.102-14.3
		c-2.126-4.714-4.37-9.366-6.637-13.993c-2.26-4.626-4.741-9.148-7.282-13.63l-7.698-13.348c-2.447-4.451-4.794-8.944-6.422-13.398
		l-0.57-1.644l-0.138-0.412l-0.065-0.208l-0.017-0.049c-0.018-0.095,0.097,0.623,0.042,0.289l-0.029-0.12l-0.232-0.969
		c-0.14-0.606-0.338-1.376-0.431-1.848c-0.091-0.444-0.148-0.891-0.227-1.338c-0.09-0.412-0.13-0.982-0.178-1.531
		c-0.05-0.546-0.106-1.095-0.123-1.645c0.023-1.134-0.024-2.246,0.043-3.402c0.272-4.594,1.35-9.302,3.006-13.848
		c1.654-4.557,3.961-8.944,6.684-13.085c2.771-4.126,5.849-8.056,9.082-11.81c3.196-3.771,6.467-7.412,9.647-11.046l9.369-10.862
		c3.114-3.591,6.352-7.06,9.606-10.482c4.986-5.198,10.145-10.177,15.328-15.121c0.038,0.002,0.056,0.002,0.094,0.005
		c2.715,3.218,5.45,6.412,8.195,9.574c7.458,8.582,14.993,17.007,22.433,25.426l11.093,12.606l5.494,6.282
		c1.89,2.046,3.725,4.123,5.638,6.141l11.458,12.074c3.833,4.006,7.481,8.126,10.803,12.383c3.285,4.261,6.132,8.764,8.106,13.342
		c1,2.278,1.72,4.585,2.194,6.786c0.242,1.106,0.383,2.183,0.449,3.211c0.054,0.528,0.021,1.003,0.049,1.51l-0.129,1.852
		c-0.103,1.606-0.351,2.458-0.577,3.592c-0.266,1.116-0.651,2.373-1.062,3.528c-0.939,2.355-2.023,4.654-3.486,6.845
		c-3.242,4.988-7.434,9.471-11.517,13.936c-3.089,3.377-5.954,6.945-8.608,10.673l-9.388,13.19
		c-3.121,4.518-6.255,9.155-9.282,14.095c-1.51,2.482-3.009,5.028-4.446,7.746c-1.456,2.739-2.854,5.585-4.203,9.053
		c-2.118,5.498-1.178,12.046,3.229,16.796c5.738,6.185,15.546,6.345,22.26,1.238l1.094-0.833c1.824-1.387,3.865-3.214,5.874-5.126
		c2.041-1.923,4.062-3.986,6.066-6.117c4.003-4.289,7.868-8.901,11.503-13.813c3.621-4.922,7-10.13,10.094-15.638
		c3.07-5.518,5.426-11.588,7.066-17.993c1.608-6.419,2.55-13.134,3.267-19.778c0.381-3.314,0.717-6.644,1.041-9.95l0.458-5.032
		c0.11-1.746,0.338-3.764,0.359-5.056l0.161-2.486c0.018-0.943,0.08-1.922,0.043-2.842c-0.024-1.866-0.142-3.683-0.325-5.447
		C487.434,244.43,486.798,241.074,486.118,237.803z"></path>
	<path class="st0" d="M430.324,361.554c-4.466,0-8.512-1.712-11.394-4.82c-4.186-4.512-5.411-10.886-3.198-16.634
		c1.454-3.739,2.938-6.666,4.196-9.034c1.435-2.715,2.933-5.259,4.441-7.737c3.025-4.939,6.158-9.574,9.277-14.088l9.386-13.19
		c2.686-3.77,5.578-7.358,8.597-10.658l0.723-0.79c3.81-4.159,7.75-8.462,10.808-13.166c1.286-1.923,2.398-4.107,3.501-6.874
		c0.414-1.163,0.801-2.426,1.069-3.549c0.326-1.54,0.498-2.343,0.579-3.618l0.13-1.851c-0.014-0.924-0.018-1.222-0.05-1.536
		c-0.065-1.03-0.206-2.117-0.452-3.231c-0.504-2.34-1.245-4.633-2.203-6.815c-1.842-4.27-4.576-8.77-8.125-13.373
		c-3.118-3.996-6.655-8.051-10.814-12.399l-11.457-12.071c-1.171-1.234-2.312-2.492-3.454-3.751l-2.182-2.39l-16.583-18.884
		l-6.506-7.344c-5.307-5.985-10.636-11.994-15.926-18.082c-2.746-3.16-5.48-6.352-8.194-9.572
		c-5.509,4.93-10.67,9.907-15.656,15.108c-3.257,3.426-6.496,6.896-9.612,10.489l-9.369,10.862l-2.98,3.387
		c-2.222,2.518-4.462,5.058-6.668,7.662c-3.515,4.08-6.49,7.949-9.092,11.823c-2.87,4.366-5.126,8.778-6.702,13.119
		c-1.737,4.767-2.752,9.441-3.017,13.893c-0.04,0.713-0.038,1.41-0.036,2.105l-0.007,1.302c0.017,0.502,0.062,0.999,0.108,1.49
		c0.077,0.876,0.118,1.362,0.198,1.723l0.227,1.337l0.663,2.821l0.782,2.161c1.647,4.506,4.065,9.114,6.433,13.421l7.699,13.352
		c2.54,4.479,5.019,8.997,7.278,13.62c2.266,4.625,4.51,9.275,6.634,13.99c2.13,4.714,4.179,9.466,6.099,14.291
		c2.275,5.754,3.911,10.419,5.146,14.685c1.872,6.319,0.028,12.886-4.505,16.626c-3.161,2.609-6.85,3.987-10.67,3.987
		c-5.13,0-9.978-2.499-12.967-6.683c-2.894-4.067-5.602-8.484-8.522-13.901c-2.466-4.593-4.774-9.353-7.054-14.55
		c-2.05-4.664-3.999-9.605-5.958-15.106c-1.733-4.849-3.23-10.006-4.574-15.765c-1.201-5.336-2.225-10.879-3.046-16.475
		c-0.855-5.59-1.543-11.24-2.206-17.107l-0.422-4.673l-0.174-4.689c-0.014-3.324,0.11-6.242,0.383-9.251
		c0.428-5.145,1.093-10.51,2.156-17.394c0.892-5.707,1.829-11.399,2.842-17.149c0.918-5.442,2.118-11.07,3.673-17.203
		c1.525-5.918,3.434-11.533,5.67-16.687c2.187-5.12,4.943-10.338,8.194-15.507c2.88-4.746,6.32-9.703,10.518-15.15
		c3.415-4.433,7.086-8.678,10.909-12.62c4.595-4.737,8.81-8.654,12.883-11.975c4.605-3.836,9.398-7.302,14.248-10.302l15.623-9.672
		c0.619-0.385,1.328-0.587,2.052-0.587c1.118,0,2.182,0.483,2.918,1.325l32.683,37.354c7.746,8.9,15.238,18.287,22.27,27.896
		c3.521,4.85,6.97,9.782,10.295,14.837c3.695,5.565,6.737,10.706,9.298,15.72c2.75,5.306,5.316,11.028,7.622,17.007
		c2.485,6.55,4.501,12.431,6.162,17.974c1.772,5.855,3.608,12.189,5.041,18.818c0.654,3.146,1.306,6.554,1.655,10.148
		c0.182,1.76,0.3,3.574,0.323,5.434c0.026,0.642,0.004,1.308-0.018,1.972l-0.186,3.345c-0.013,0.79-0.102,1.837-0.194,2.93
		l-0.622,7.154c-0.324,3.305-0.66,6.634-1.042,9.946c-0.594,5.507-1.502,12.73-3.262,19.758c-1.663,6.494-4.036,12.534-7.052,17.954
		c-3.014,5.365-6.406,10.62-10.082,15.621c-3.527,4.767-7.394,9.408-11.492,13.798c-2,2.13-4.02,4.19-6.058,6.11
		c-2.006,1.906-4.041,3.732-5.862,5.117l-1.094,0.831C437.926,360.275,434.142,361.554,430.324,361.554L430.324,361.554z"></path>
	<path class="st0" d="M57.91,346.003c2.004,2.13,4.026,4.194,6.066,6.117c2.01,1.912,4.05,3.739,5.874,5.126l1.887,1.44
		c4.638,3.507,11.061,4.412,16.79,1.621c7.681-3.742,10.73-13.299,7.526-21.219c-1.231-3.042-2.503-5.612-3.822-8.095
		c-1.438-2.718-2.937-5.264-4.447-7.746c-3.026-4.94-6.162-9.578-9.282-14.095l-9.389-13.19c-2.646-3.718-5.503-7.276-8.582-10.645
		c-4.09-4.474-8.293-8.966-11.542-13.964c-1.463-2.19-2.546-4.49-3.485-6.845c-0.411-1.155-0.797-2.412-1.062-3.528
		c-0.226-1.134-0.473-1.986-0.576-3.592l-0.13-1.852c0.027-0.507-0.006-0.982,0.049-1.51c0.065-1.028,0.206-2.106,0.449-3.211
		c0.474-2.201,1.194-4.507,2.194-6.786c1.974-4.578,4.82-9.081,8.105-13.342c3.323-4.257,6.971-8.377,10.803-12.383l11.458-12.074
		c1.914-2.018,3.748-4.095,5.638-6.141l5.494-6.282l11.091-12.606c7.441-8.419,14.976-16.845,22.434-25.426
		c2.745-3.162,5.479-6.355,8.195-9.574c0.037-0.002,0.055-0.003,0.092-0.005c5.184,4.944,10.343,9.922,15.329,15.121
		c3.254,3.422,6.492,6.891,9.606,10.482l9.368,10.862c3.18,3.634,6.451,7.275,9.647,11.046c3.234,3.754,6.31,7.683,9.082,11.81
		c2.724,4.141,5.03,8.528,6.684,13.085c1.658,4.546,2.735,9.254,3.008,13.848c0.067,1.155,0.019,2.268,0.043,3.402
		c-0.018,0.55-0.073,1.098-0.124,1.645c-0.048,0.549-0.087,1.119-0.178,1.531c-0.079,0.447-0.135,0.894-0.227,1.338
		c-0.094,0.472-0.29,1.242-0.431,1.848l-0.232,0.969l-0.029,0.12c-0.055,0.334,0.06-0.384,0.042-0.289l-0.017,0.049l-0.066,0.208
		l-0.138,0.412l-0.57,1.644c-1.63,4.454-3.977,8.947-6.424,13.398l-7.697,13.348c-2.542,4.482-5.023,9.004-7.282,13.63
		c-2.267,4.627-4.512,9.278-6.637,13.993c-2.13,4.715-4.179,9.472-6.102,14.3c-1.905,4.813-3.722,9.76-5.151,14.697l-0.096,0.314
		c-1.99,6.91,0.838,14.689,7.666,18.501c7.315,4.084,16.655,1.283,21.445-5.59c2.981-4.278,5.529-8.602,7.94-13.076
		c2.554-4.754,4.889-9.613,7.06-14.56c2.174-4.943,4.139-9.993,5.963-15.116c1.829-5.12,3.322-10.398,4.579-15.782
		c1.215-5.402,2.228-10.898,3.047-16.49c0.856-5.591,1.544-11.243,2.206-17.113l0.207-2.243l0.058-0.559l0.031-0.278l0.008-0.07
		c-0.009,0.053,0.111-0.708,0.062-0.416l0.007-0.123l0.05-0.993l0.095-2.078l0.078-2.616c0.014-3.331-0.11-6.254-0.384-9.267
		c-0.495-5.954-1.274-11.694-2.157-17.406c-0.893-5.707-1.83-11.401-2.843-17.151c-0.971-5.76-2.226-11.49-3.675-17.214
		c-1.472-5.715-3.341-11.324-5.678-16.711c-2.309-5.405-5.092-10.578-8.205-15.529c-3.202-5.279-6.786-10.308-10.558-15.202
		c-3.39-4.398-7.02-8.606-10.887-12.592c-4.086-4.212-8.342-8.275-12.898-11.987c-4.51-3.757-9.271-7.225-14.266-10.317
		l-15.623-9.672c-1.683-1.042-3.867-0.722-5.171,0.768c-7.21,8.238-29.432,33.632-32.682,37.355
		c-7.766,8.926-15.198,18.232-22.278,27.908c-3.523,4.852-6.974,9.786-10.298,14.842c-3.348,5.039-6.506,10.25-9.31,15.736
		c-2.831,5.465-5.365,11.155-7.627,17.021c-2.233,5.881-4.329,11.853-6.166,17.986c-1.853,6.126-3.634,12.31-5.043,18.831
		c-0.681,3.27-1.316,6.626-1.658,10.165c-0.183,1.764-0.302,3.582-0.325,5.447c-0.038,0.919,0.024,1.898,0.042,2.842l0.161,2.486
		c0.022,1.292,0.25,3.31,0.359,5.056l0.458,5.032c0.324,3.306,0.662,6.637,1.042,9.95c0.717,6.645,1.659,13.359,3.267,19.778
		c1.639,6.405,3.995,12.475,7.066,17.993c3.094,5.507,6.473,10.715,10.094,15.638C50.042,337.102,53.907,341.714,57.91,346.003z"></path>
	<path class="st0" d="M81.454,361.794c-3.447,0-6.864-1.147-9.622-3.233l-1.886-1.44c-1.821-1.385-3.856-3.21-5.861-5.114
		c-2.038-1.922-4.059-3.982-6.061-6.112c-4.097-4.39-7.963-9.031-11.491-13.798c-3.677-5.001-7.069-10.256-10.082-15.621
		c-3.016-5.422-5.389-11.463-7.05-17.954c-1.376-5.494-2.382-11.586-3.262-19.758c-0.382-3.312-0.718-6.641-1.043-9.947
		l-0.623-7.171c-0.091-1.086-0.18-2.127-0.192-2.903l-0.186-3.347c-0.022-0.666-0.045-1.334-0.018-1.974
		c0.022-1.864,0.141-3.678,0.323-5.438c0.348-3.599,1.002-7.003,1.655-10.148c1.429-6.618,3.266-12.955,5.04-18.817
		c1.665-5.558,3.681-11.438,6.162-17.978c2.302-5.969,4.866-11.69,7.62-17.002c2.564-5.018,5.606-10.162,9.3-15.722
		c3.324-5.055,6.774-9.986,10.296-14.837c7.033-9.61,14.526-18.998,22.27-27.896l32.511-37.16c0.906-1.036,1.97-1.519,3.088-1.519
		c0.724,0,1.433,0.202,2.052,0.587l15.623,9.672c4.846,2.998,9.64,6.465,14.247,10.302c4.074,3.319,8.289,7.236,12.885,11.975
		c3.812,3.93,7.47,8.162,10.876,12.58c4.222,5.478,7.674,10.446,10.548,15.186c3.25,5.173,6.008,10.389,8.194,15.509
		c2.241,5.165,4.149,10.78,5.671,16.69c1.557,6.144,2.757,11.77,3.672,17.203c1.014,5.75,1.95,11.442,2.843,17.149
		c1.062,6.884,1.728,12.249,2.155,17.394c0.274,3.01,0.398,5.927,0.383,9.254l-0.223,5.679l-0.373,3.682
		c-0.662,5.865-1.349,11.514-2.205,17.105c-0.82,5.596-1.845,11.139-3.045,16.477c-1.343,5.75-2.839,10.907-4.574,15.763
		c-1.955,5.494-3.904,10.434-5.958,15.106c-2.285,5.206-4.592,9.966-7.054,14.55c-2.726,5.058-5.246,9.208-7.931,13.059
		c-3.19,4.579-8.537,7.423-13.954,7.423c-2.602,0-5.052-0.632-7.283-1.879c-6.526-3.643-9.647-11.176-7.592-18.318
		c1.331-4.579,2.967-9.245,5.242-14.998c1.922-4.826,3.97-9.578,6.099-14.291c2.125-4.714,4.37-9.365,6.634-13.99
		c2.259-4.623,4.739-9.141,7.279-13.622l7.697-13.346c2.367-4.306,4.782-8.91,6.434-13.423l0.571-1.646l0.442-1.485l0.433-1.854
		l0.145-0.83c0.162-0.872,0.205-1.366,0.246-1.858c0.078-0.855,0.125-1.354,0.142-1.85l-0.007-1.307
		c0.003-0.698,0.005-1.394-0.037-2.109c-0.263-4.45-1.279-9.123-3.017-13.893c-1.575-4.338-3.83-8.752-6.7-13.118
		c-2.605-3.878-5.58-7.745-9.095-11.825c-2.205-2.603-4.445-5.143-6.667-7.662l-2.981-3.387l-9.366-10.861
		c-3.117-3.594-6.357-7.065-9.612-10.488c-4.987-5.203-10.149-10.181-15.334-15.128c-3.037,3.238-5.771,6.43-8.516,9.59
		c-5.284,6.079-10.606,12.082-15.906,18.058l-17.618,19.974l-5.495,6.282l-2.176,2.382c-1.142,1.26-2.284,2.519-3.457,3.755
		l-11.458,12.074c-4.158,4.348-7.694,8.403-10.812,12.397c-3.547,4.598-6.281,9.098-8.125,13.375
		c-0.959,2.182-1.701,4.475-2.204,6.814c-0.246,1.113-0.387,2.199-0.454,3.235c-0.031,0.308-0.033,0.605-0.034,0.901l0.117,2.482
		c0.082,1.278,0.254,2.082,0.435,2.927c0.411,1.812,0.798,3.074,1.211,4.232c1.106,2.775,2.218,4.958,3.503,6.882
		c3.039,4.677,6.956,8.956,10.743,13.094l0.812,0.888c3.009,3.29,5.892,6.866,8.572,10.629l9.388,13.192
		c3.118,4.512,6.25,9.147,9.274,14.086c1.509,2.478,3.006,5.022,4.442,7.737c1.318,2.478,2.587,5.045,3.815,8.082
		c3.242,8.009-0.1,17.438-7.448,21.018C86.239,361.248,83.882,361.794,81.454,361.794L81.454,361.794z"></path>
</g>
</svg>
