<!--?xml version="1.0" encoding="utf-8"?-->
<!-- Generator: Adobe Illustrator 18.1.1, SVG Export Plug-In . SVG Version: 6.00 Build 0)  -->

<svg version="1.1" id="_x31_0" xmlns="http://www.w3.org/2000/svg" xmlns:xlink="http://www.w3.org/1999/xlink" x="0px" y="0px" viewBox="0 0 512 512" style="width: 256px; height: 256px; opacity: 1;" xml:space="preserve">
<style type="text/css">
	.st0{fill:#374149;}
</style>
<g>
	<path class="st0" d="M406.004,401.211l-14.238-162.946c-0.386-49.496-39.106-87.882-90.363-89.422l-90.313-0.012l-0.492,0.012
		c-51.258,1.539-89.977,39.926-90.363,89.422l-14.238,162.946c-2.481,28.386,7.141,56.718,26.398,77.726
		C151.648,499.953,179.035,512,207.535,512h96.93c28.5,0,55.886-12.047,75.145-33.062
		C398.863,457.93,408.484,429.598,406.004,401.211z M355.582,456.922c-13.289,14.504-31.445,22.493-51.117,22.493h-96.93
		c-19.672,0-37.828-7.989-51.118-22.493c-13.293-14.5-19.668-33.281-17.957-52.874l14.293-163.622l0.062-1.418
		c0-31.754,25.149-56.473,58.531-57.586h89.305c33.383,1.114,58.531,25.832,58.531,57.586v0.71l14.356,164.329
		C375.25,423.641,368.875,442.422,355.582,456.922z" style="fill: rgb(75, 75, 75);"></path>
	<path class="st0" d="M330.801,272.278c-8.977-5.301-20.321-9.36-35.961-9.36c-26.902,0-41.031,11.997-52.379,21.657
		c-9.863,8.351-16.351,13.89-31.313,13.89c-12.781,0-19.37-4.07-27.199-10.477c-1.195-1.011-2.414-2.074-3.687-3.195l-0.012,0.114
		c-0.05-0.047-0.098-0.082-0.148-0.125l-3.317,37.828l-7.347,84.133c-0.95,10.965,2.488,21.066,9.926,29.152
		c7.434,8.118,17.18,12.414,28.172,12.414h96.93c10.992,0,20.738-4.297,28.176-12.414c7.434-8.086,10.871-18.187,9.922-29.152
		l-7.91-90.414L330.801,272.278z" style="fill: rgb(75, 75, 75);"></path>
	<path class="st0" d="M163.809,30.649c0.851,0,1.714-0.106,2.578-0.325c24.145-6.179,46.496-9.582,62.938-9.586
		c0.027,0,0.055,0,0.082,0c3.164,0,6.203,0.05,9.16,0.129v43.824h-32.328h-0.098l0,0h-0.161v67.149h98.75V64.691h-32.59v-36.09
		l0.023-5.023c17.981,2.542,27.481,5.89,27.614,5.938c2.218,0.816,4.492,0.66,6.586,0.007c0.035-0.007,0.07-0.011,0.106-0.023
		c0.942-0.301,1.781-0.734,2.602-1.289c0.082-0.055,0.156-0.114,0.238-0.172c1.625-1.168,3.035-2.66,3.777-4.676
		c1.977-5.375-0.777-11.336-6.152-13.313C305.816,9.641,279.035,0,229.41,0c-0.031,0-0.063,0-0.094,0
		c-24.449,0.004-53.14,6.414-68.07,10.234c-5.547,1.422-8.895,7.066-7.473,12.617C154.973,27.535,159.183,30.649,163.809,30.649z" style="fill: rgb(75, 75, 75);"></path>
</g>
</svg>
