<!--?xml version="1.0" encoding="utf-8"?-->
<!-- Generator: Adobe Illustrator 19.1.1, SVG Export Plug-In . SVG Version: 6.00 Build 0)  -->
<svg version="1.1" id="_x31_0" xmlns="http://www.w3.org/2000/svg" xmlns:xlink="http://www.w3.org/1999/xlink" x="0px" y="0px" viewBox="0 0 512 512" style="width: 256px; height: 256px; opacity: 1;" xml:space="preserve">
<style type="text/css">
	.st0{fill:#374149;}
</style>
<g>
	<path class="st0" d="M8.396,415.229l1.262,0.793c9.864,6.309,75.356,40.238,128.774,40.238c63.042,0,105.89-17.199,120.012-23.832
		c14.285,7.891,50.422,23.832,110.942,23.832c54.996,0,125.461-35.43,132.957-40.238l1.258-0.793
		c5.527-3.469,8.762-9.785,8.367-16.254l-0.078-1.496c-3-54.294-13.098-142.742-28.09-208.79
		c-14.832-65.489-44.187-122.379-44.504-122.774c-3.71-6.313-10.496-10.176-17.754-10.176c-2.129,0-4.262,0.317-6.309,0.946
		c-30.066,9.546-87.035,15.465-148.738,15.465c-3.473,0-6.867,0-10.73-0.078c-3.394,0.078-6.789,0.078-10.258,0.078
		c-61.703,0-118.754-5.918-148.817-15.465c-1.973-0.629-4.102-0.946-6.234-0.946c-7.258,0-14.122,3.863-17.832,10.176
		c-0.234,0.394-29.59,57.285-44.422,122.774c-15.07,66.047-25.09,154.496-28.09,208.707l-0.078,1.578
		C-0.366,405.444,2.873,411.76,8.396,415.229z M472.077,371.92l0.562,0.898c0.454,5.504,0.867,10.879,1.215,15.977
		c-19.566,9.473-67.934,30.066-104.469,30.066c-46.551,0-75.512-10.73-88.059-16.812c0.027-3.066,0.039-6.215,0.047-9.344
		c6.141-3.531,20.281-9.219,43.66-4.848c36.664,6.848,60.782,5.035,87.79-0.117c16.105-3.066,27.301-8.774,36.332-13.371
		c5.008-2.562,9.34-4.774,13.102-5.699C468.913,367.026,471.956,371.725,472.077,371.92z M98.897,96.138
		c28.277,6.859,68.41,11.367,113.344,12.883v41.519h13.965v-40.66l0.004-0.457c6.363,0.121,12.785,0.206,19.297,0.206
		c3.55,0,7.023,0,10.492-0.082c3.473,0.082,6.946,0.082,10.496,0.082c6.512,0,12.934-0.086,19.297-0.206v40.832v0.125v0.16h13.969
		v-41.519c44.93-1.516,85.066-6.024,113.34-12.883c4.024,7.828,9.598,21.129,15.344,37.145c0.07,0.203,0.141,0.398,0.211,0.598
		c-34.371,10.664-97.235,17.344-165.173,17.562l-14.984-0.054v0.054c-66.57-0.214-128.199-6.641-162.997-16.93
		c-0.71-0.211-1.476-0.418-2.168-0.633C89.162,117.592,94.826,104.064,98.897,96.138z M275.092,173.658v107.828
		c0,15.512-10.074,28.602-23.934,33.406c-1.434,0.485-2.871,0.961-4.39,1.266V173.725c1.61,0.008,3.21,0.031,4.828,0.031
		c1.469,0,2.934-0.004,4.394-0.008c1.461,0.004,2.93,0.008,4.398,0.008C265.314,173.756,270.217,173.721,275.092,173.658z
		 M64.732,196.978c3.074-13.543,6.887-27.254,10.934-40.187c35.696,9.382,91.829,15.492,153.192,16.718v154.165
		c0,3.906,3.164,7.07,7.07,7.07h3.816c29.418,0,53.262-23.844,53.262-53.258V173.271c57.492-1.652,109.554-7.605,143.328-16.484
		c4.039,12.934,7.86,26.648,10.934,40.191c8.977,39.454,16.442,89.719,21.43,135.043c0.696,6.477,1.356,12.961,1.966,19.434
		c-3.27-0.914-7.063-1.195-11.493-0.106c-5.222,1.294-10.207,3.833-15.988,6.782c-8.238,4.195-18.477,9.422-32.746,12.141
		c-26.222,5-48.207,6.613-83.05,0.11c-20.246-3.782-35.153-0.794-44.837,2.894c-0.398,0.141-0.812,0.242-1.206,0.39
		c-0.039-7.473-0.094-12.828-0.094-13.359l-0.156-15.618l-15.703-0.871c-7.652-0.472-14.836,2.211-20.278,7.497
		c-5.484,5.41-8.434,13.136-8.758,21.941c-0.058,1.004-0.222,1.954-0.214,2.989c-8.657-4.602-25.848-10.657-51.524-5.863
		c-34.836,6.503-56.82,4.886-83.05-0.11c-14.27-2.719-24.512-7.946-32.766-12.149c-5.762-2.941-10.746-5.48-15.972-6.774
		c-4.336-1.074-8.051-0.804-11.274,0.063c-0.102,0.019-0.188,0.015-0.29,0.031C46.095,301.557,54.4,242.174,64.732,196.978z
		 M39.357,372.807l0.562-0.887c0.129-0.195,3.203-4.894,9.824-3.25c3.762,0.926,8.09,3.137,13.137,5.714
		c8.992,4.582,20.191,10.29,36.293,13.356c27.008,5.152,51.13,6.965,87.794,0.117c29.218-5.457,44.164,4.813,46.878,6.926
		l1.301,1.023l0.18,0.168l0.012-0.02l0.125,0.102l0.5-0.882l0.394-0.496c0.008,1.957,0.027,4.042,0.074,6.43
		c-15.387,6.309-50.027,17.754-98,17.754c-35.825,0-81.274-20.203-100.29-29.828C38.486,383.862,38.904,378.397,39.357,372.807z" style="fill: rgb(75, 75, 75);"></path>
	<path class="st0" d="M253.701,213.26c0,3.984,3.23,7.214,7.218,7.214c3.985,0,7.215-3.23,7.215-7.214
		c0-3.989-3.23-7.215-7.215-7.215C256.932,206.045,253.701,209.271,253.701,213.26z" style="fill: rgb(75, 75, 75);"></path>
</g>
</svg>
