<!--?xml version="1.0" encoding="utf-8"?-->
<!-- Generator: Adobe Illustrator 19.1.1, SVG Export Plug-In . SVG Version: 6.00 Build 0)  -->
<svg version="1.1" id="_x31_0" xmlns="http://www.w3.org/2000/svg" xmlns:xlink="http://www.w3.org/1999/xlink" x="0px" y="0px" viewBox="0 0 512 512" style="width: 256px; height: 256px; opacity: 1;" xml:space="preserve">
<style type="text/css">
	.st0{fill:#374149;}
</style>
<g>
	<path class="st0" d="M26.879,349.928c-0.344-2-0.727-4.004-1.102-6.027l0.039-0.59l-0.086,0.344
		c-0.023-0.129-0.047-0.254-0.07-0.383L0,447.713l11.098,2.734l19.621-79.84c-1.066-5.586-2.054-11.137-3.082-16.574L26.879,349.928
		z" style="fill: rgb(59, 51, 42);"></path>
	<path class="st0" d="M498.594,393.186l-12.098-49.848l-0.066,0.356l-0.094-0.383c-0.418,2.321-0.836,4.562-1.254,6.805
		l-0.723,3.879c-1.027,5.511-2.054,11.062-3.042,16.652l19.582,79.801L512,447.713L498.594,393.186z" style="fill: rgb(59, 51, 42);"></path>
	<path class="st0" d="M481.965,325.482c3.457-18.25,7.184-37.262,10.95-55.738l1.746-8.594l-7.828-3.914
		C398.473,213.057,288.484,92.084,267.957,69.041c-2.054-2.355-3.234-3.687-3.347-3.801l-1.672-1.938l-3.195-3.652l-3.188-3.672
		l-0.453-0.554l-0.016,0.015l-0.105-0.121l-3.766,4.332l-3.192,3.691l-1.637,1.898c-0.113,0.114-1.254,1.446-3.343,3.801
		c-20.531,23.043-130.52,144.016-218.875,188.195l-7.832,3.914l1.746,8.594c3.766,18.442,7.492,37.41,10.949,55.66
		c0.875,4.602,1.715,9.126,2.551,13.574c0.874,4.637,1.71,9.122,2.546,13.61v0.039c8.973,48.398,15.359,86.34,15.473,86.949
		l1.598,9.504h132.266l10.914,6.539c1.214,0.722,2.546,1.062,3.914,1.062c1.066,0,2.168-0.226,3.157-0.683
		c2.281-1.028,3.878-3.118,4.335-5.586l0.227-1.332h12.242l1.254-9.961l31.367-244.652l2.453-13.966l2.359-12.582l34.766,271.199
		l1.29,9.961h167.054l1.598-9.504c0.118-0.609,6.504-38.55,15.477-86.949v-0.039c0.836-4.488,1.672-8.973,2.546-13.61
		c0.836-4.449,1.672-8.898,2.547-13.461V325.482z M193.652,436.846l-79.102-47.305l132.875-257.539l-39.777,225.746L193.652,436.846
		z" style="fill: rgb(59, 51, 42);"></path>
</g>
</svg>
