<!--?xml version="1.0" encoding="utf-8"?-->
<!-- Generator: Adobe Illustrator 18.1.1, SVG Export Plug-In . SVG Version: 6.00 Build 0)  -->

<svg version="1.1" id="_x31_0" xmlns="http://www.w3.org/2000/svg" xmlns:xlink="http://www.w3.org/1999/xlink" x="0px" y="0px" viewBox="0 0 512 512" style="width: 256px; height: 256px; opacity: 1;" xml:space="preserve">
<style type="text/css">
	.st0{fill:#374149;}
</style>
<g>
	<path class="st0" d="M428.569,157.663c-14.894-14.898-39.043-14.898-53.942,0L85.405,446.885
		c-14.894,14.894-14.894,39.047,0,53.942c14.895,14.898,39.047,14.898,53.942,0l289.222-289.222
		C443.467,196.71,443.467,172.557,428.569,157.663z" style="fill: rgb(75, 75, 75);"></path>
	<path class="st0" d="M330.898,168.831l24.847-24.847l0.106-0.11l0.117-0.114L287.73,75.523c-6.922-6.922-18.145-6.922-25.066,0
		c-6.926,6.926-6.926,18.148,0,25.07L330.898,168.831z" style="fill: rgb(75, 75, 75);"></path>
	<path class="st0" d="M247.03,116.226c-6.922-6.922-18.148-6.922-25.07,0c-6.922,6.922-6.922,18.144,0,25.066l68.238,68.238
		l24.847-24.847l0.11-0.106l-0.004-0.004l0.114-0.114L247.03,116.226z" style="fill: rgb(75, 75, 75);"></path>
	<path class="st0" d="M274.346,225.382l0.106-0.109l0.118-0.114l-68.238-68.238c-6.922-6.922-18.144-6.922-25.066,0
		c-6.926,6.926-6.926,18.148,0,25.07l68.234,68.238L274.346,225.382z" style="fill: rgb(75, 75, 75);"></path>
	<path class="st0" d="M140.562,197.624c-6.922,6.922-6.922,18.145,0,25.066l68.238,68.238l24.902-24.902l0.054-0.051v-0.003
		l0.11-0.114l-68.234-68.234C158.71,190.702,147.484,190.702,140.562,197.624z" style="fill: rgb(75, 75, 75);"></path>
	<path class="st0" d="M94.339,164.949c0.301,0,0.598,0,0.898-0.027c1.528-0.063,41.34-2.336,61.985-22.985
		c20.648-20.648,21.546-41.546,22.206-56.804c0.539-12.59,1.074-17.294,7.782-24c6.71-6.707,11.426-6.782,23.988-7.77
		c6.754-0.539,24.84-3.297,26.289-3.699c2.008-0.57,3.91-1.454,5.66-2.622c6.618-4.339,11.066-12.499,11.066-21.843
		c0-12.606-8.117-23.058-18.714-24.914h-0.047C234.374,0.09,233.253,0,232.128,0c-0.851,0-1.691,0.062-2.531,0.164
		c-0.641,0.121-1.301,0.242-1.961,0.375c-7.11,1.363-54.722,5.015-75.367,25.664c-20.648,20.644-21.546,41.546-22.206,56.804
		c-0.539,12.59-1.063,17.293-7.786,24c-6.707,6.707-26.812,7.531-27.938,7.531c-1.886,0-3.726,0.27-5.48,0.793h-0.043
		c-9.523,2.817-16.558,12.68-16.558,24.406C72.258,153.659,82.152,164.949,94.339,164.949z" style="fill: rgb(75, 75, 75);"></path>
</g>
</svg>
