<!--?xml version="1.0" encoding="utf-8"?-->
<!-- Generator: Adobe Illustrator 18.1.1, SVG Export Plug-In . SVG Version: 6.00 Build 0)  -->

<svg version="1.1" id="_x31_0" xmlns="http://www.w3.org/2000/svg" xmlns:xlink="http://www.w3.org/1999/xlink" x="0px" y="0px" viewBox="0 0 512 512" style="enable-background:new 0 0 512 512;" xml:space="preserve">
<style type="text/css">
	.st0{fill:#374149;}
</style>
<g>
	<path class="st0" d="M21.117,80.336c0-5.922-4.718-10.641-10.558-10.641S0,74.414,0,80.336c0,35.598,24.321,65.682,57.278,74.482
		l0.563-19.043l0.078-2.879C36.399,125.056,21.117,104.496,21.117,80.336z" style="fill: rgb(75, 75, 75);"></path>
	<path class="st0" d="M324.39,359.808l-1.117-40.966l-0.168-7.074l-0.726-31.254h-0.137l-0.758-28.364l-1.953-73.354l-0.504-16.855
		l-1.058-41.064l-0.118-3.629l-1.011-30.954h-30.974l-173.973-0.004c-24.294,0-43.822,19.024-44.462,43.31l-0.851,32.458l-0.5,16.63
		l-1.958,73.462l-0.758,28.364h-0.137l-0.726,31.254l-0.168,7.2l-2.008,75.259l-0.012,0.426v0.426
		c0,22.695,18.466,41.161,41.166,41.161c8.152,0,16.062-2.414,22.879-6.981l1.469-0.977l10.762,7.141
		c6.641,4.466,14.57,6.883,22.774,6.883c8.203,0,16.134-2.418,22.938-6.992l10.543-7.012l10.621,7.082
		c6.696,4.504,14.63,6.922,22.833,6.922s16.137-2.418,22.942-6.992l10.551-7.02l1.539,1.02c6.73,4.511,14.645,6.926,22.798,6.926
		c22.7,0,41.165-18.466,41.165-41.158v-0.418l-0.011-0.414L324.39,359.808z M284.128,404.238c-1.711,0-3.465-0.488-5.074-1.566
		l-14.176-9.434c-1.535-1.031-3.309-1.551-5.082-1.551c-1.774,0-3.547,0.52-5.078,1.551l-23.336,15.52
		c-1.535,1.031-3.309,1.546-5.082,1.546c-1.774,0-3.543-0.515-5.078-1.546l-23.282-15.52c-1.535-1.031-3.309-1.551-5.078-1.551
		c-1.774,0-3.547,0.52-5.082,1.551l-23.336,15.52c-1.535,1.031-3.305,1.546-5.078,1.546s-3.547-0.515-5.082-1.546l-23.391-15.52
		c-1.535-1.035-3.308-1.551-5.078-1.551c-1.774,0-3.547,0.516-5.082,1.551l-14.18,9.434c-1.61,1.078-3.36,1.566-5.07,1.566
		c-4.754,0-9.165-3.778-9.165-9.16l2.008-75.366l0.168-7.199h147.442h49.184l0.165,7.203l1.117,40.919l0.894,34.446
		C293.292,400.46,288.881,404.238,284.128,404.238z M289.491,253.004L216.029,253H98.451l-2.339-0.003l1.953-73.35l0.504-16.75
		l0.851-32.458c0.18-6.758,5.711-12.149,12.474-12.149l173.973,0.004l0.113,3.402l1.059,41.204l0.504,16.746l1.918,72.033
		L289.491,253.004z" style="fill: rgb(75, 75, 75);"></path>
	<path class="st0" d="M453.097,83.758c-33.118-2.223-61.326,21.328-66.56,52.509h-35.102l-9.661-22.165l-8.859-20.696l0.011,0.398
		l-0.171-0.394l1.199,42.857l0.562,21.145l4.722,176.497l57.29-22.582c14.524-5.723,21.399-22.353,15.165-36.662l-36.49-83.736
		l-14.535-33.517h25.868c5.004,29.818,31.012,52.654,62.24,52.654c35.508,0,64.224-29.418,63.197-65.079
		C511.051,112.965,485.058,85.902,453.097,83.758z M448.777,188.916c-19.524,0-35.95-13.391-40.603-31.505
		c-0.914-3.382-1.406-6.91-1.406-10.574s0.492-7.187,1.406-10.57c4.653-18.118,21.079-31.509,40.603-31.509
		c23.188,0,42.078,18.891,42.078,42.079C490.855,170.029,471.965,188.916,448.777,188.916z" style="fill: rgb(75, 75, 75);"></path>
	<path class="st0" d="M448.777,116.743c-12.829,0-23.825,8.106-28.056,19.524c-1.266,3.242-1.973,6.836-1.973,10.57
		c0,3.738,0.707,7.332,1.973,10.574c4.231,11.418,15.227,19.524,28.056,19.524c16.633,0,30.098-13.461,30.098-30.098
		C478.875,130.204,465.409,116.743,448.777,116.743z" style="fill: rgb(75, 75, 75);"></path>
</g>
</svg>
